<svg width="423" height="424" viewBox="0 0 423 424" fill="none" xmlns="http://www.w3.org/2000/svg">
<path d="M233.072 40.4999H56.5528C53.1931 40.4999 50.4695 43.2235 50.4695 46.5832V292.774C50.4695 296.133 53.1931 298.857 56.5528 298.857H233.072C236.432 298.857 239.155 296.133 239.155 292.774V46.5832C239.155 43.2235 236.432 40.4999 233.072 40.4999Z" fill="#F5F5F5"/>
<path d="M376.367 55.8942L376.713 57.6854L373.165 76.9071C371.909 77.8295 370.478 78.4858 368.96 78.8359C367.442 79.186 365.868 79.2226 364.335 78.9434L344.226 75.2258C344.226 75.2258 341.024 74.5076 341.92 70.3591C341.92 70.3591 342.072 68.1707 343.948 68.0271C343.948 68.0271 340.052 66.4387 340.483 63.4392C340.914 60.4398 343.128 60.4736 343.128 60.4736C343.128 60.4736 339.478 59.5526 339.858 56.173C340.238 52.7933 342.207 52.7933 342.207 52.7933C342.207 52.7933 337.982 51.7626 339.022 48.0196C339.142 47.5223 339.36 47.054 339.663 46.6417C339.966 46.2295 340.348 45.8815 340.787 45.6182C341.226 45.3548 341.712 45.1813 342.219 45.1076C342.725 45.034 343.241 45.0617 343.736 45.1891L358.041 47.8337L370.579 50.1488C372.007 50.4208 373.32 51.113 374.351 52.1367C375.382 53.1604 376.084 54.4688 376.367 55.8942Z" fill="#EBEBEB"/>
<path d="M372.786 50.9768C372.786 50.9768 368.384 46.9888 366.871 42.6544C366.169 40.4935 365.816 38.2347 365.824 35.9627C365.824 35.7937 366.111 34.2729 366.322 33.0393C366.403 32.5511 366.292 32.0507 366.014 31.6418C365.735 31.2328 365.31 30.9466 364.827 30.8425C363.309 30.6241 361.765 30.9683 360.484 31.8103C359.203 32.6524 358.274 33.934 357.873 35.4135C356.183 41.1758 357.628 45.1046 357.679 46.8536L357.721 48.611L372.786 50.9768Z" fill="#EBEBEB"/>
<path d="M370.057 79.796L384.098 82.3908L389.372 53.8513L375.331 51.2565L370.057 79.796Z" fill="#EBEBEB"/>
<path d="M370.064 79.7798C370.064 79.7798 371.188 73.3838 372.641 65.5092C374.095 57.6347 375.32 51.2387 375.32 51.2471C375.32 51.2556 374.196 57.6431 372.734 65.5261C371.273 73.4092 370.09 79.7883 370.064 79.7798Z" fill="#E0E0E0"/>
<path d="M384.107 82.3821C384.107 82.3821 385.231 75.9777 386.693 68.1031C388.154 60.2286 389.354 53.841 389.379 53.841C389.405 53.841 388.256 60.2454 386.802 68.12C385.349 75.9946 384.141 82.3821 384.107 82.3821Z" fill="#E0E0E0"/>
<path d="M379.089 58.6993C378.997 59.2186 379.061 59.7534 379.273 60.2363C379.485 60.7191 379.836 61.1284 380.28 61.4124C380.724 61.6964 381.243 61.8424 381.77 61.8321C382.297 61.8218 382.81 61.6556 383.243 61.3545C383.676 61.0533 384.01 60.6307 384.203 60.14C384.396 59.6492 384.439 59.1123 384.327 58.5969C384.216 58.0815 383.954 57.6108 383.575 57.2441C383.196 56.8774 382.717 56.6311 382.198 56.5363C381.852 56.473 381.496 56.4789 381.152 56.5535C380.808 56.6281 380.482 56.77 380.193 56.971C379.904 57.172 379.658 57.4282 379.468 57.7248C379.279 58.0214 379.15 58.3526 379.089 58.6993Z" fill="white"/>
<path d="M354.711 47.2423C354.711 47.2423 356.257 47.4704 358.141 47.8168C360.025 48.1632 361.563 48.4758 361.521 48.5012C361.479 48.5265 359.975 48.2731 358.091 47.9266C356.206 47.5802 354.711 47.2423 354.711 47.2423Z" fill="#E0E0E0"/>
<path d="M342.783 60.5581C342.783 60.5581 343.772 60.6848 344.98 60.9045C345.714 61.0229 346.442 61.178 347.16 61.3692C347.16 61.3692 346.172 61.2425 344.963 61.0143C344.229 60.901 343.501 60.7487 342.783 60.5581Z" fill="#E0E0E0"/>
<path d="M341.911 52.6666C341.911 52.6666 343.305 52.8694 345.02 53.182C346.736 53.4946 348.121 53.7819 348.113 53.8157C348.104 53.8495 346.719 53.6129 345.004 53.2918C343.288 52.9708 341.903 52.7004 341.911 52.6666Z" fill="#E0E0E0"/>
<path d="M343.035 67.9003C343.035 67.9003 344.429 68.1031 346.144 68.4157C347.86 68.7284 349.245 69.0156 349.237 69.041C349.228 69.0663 347.843 68.8467 346.128 68.5256C344.412 68.2045 343.027 67.9257 343.035 67.9003Z" fill="#E0E0E0"/>
<path d="M378.497 52.6666C378.497 52.6666 380.474 52.9792 382.891 53.427C385.307 53.8748 387.268 54.2719 387.268 54.2719C387.268 54.2719 385.29 53.9678 382.874 53.52C380.458 53.0722 378.497 52.7004 378.497 52.6666Z" fill="white"/>
<path d="M341.168 57.6178C341.137 57.5685 341.114 57.5142 341.101 57.4572C341.057 57.3051 341.026 57.1497 341.008 56.9925C340.986 56.7593 340.986 56.5245 341.008 56.2913C341.039 56.0037 341.101 55.7204 341.194 55.4463C341.291 55.174 341.419 54.9133 341.574 54.669C341.699 54.4725 341.847 54.2911 342.013 54.1283C342.124 54.0146 342.245 53.9126 342.377 53.8241L342.52 53.7312C342.52 53.7312 342.334 53.8917 342.072 54.179C341.916 54.3477 341.778 54.5317 341.658 54.7282C341.512 54.9645 341.393 55.2168 341.304 55.4801C341.209 55.7541 341.144 56.0373 341.109 56.325C341.088 56.5527 341.088 56.7818 341.109 57.0094C341.118 57.3812 341.185 57.6093 341.168 57.6178Z" fill="white"/>
<path d="M340.424 50.0051C340.303 49.9087 340.207 49.7839 340.145 49.6418C339.969 49.3121 339.878 48.9429 339.884 48.5688C339.896 48.1954 339.997 47.8305 340.179 47.5042C340.249 47.3673 340.351 47.2487 340.475 47.1578C340.475 47.1578 340.374 47.3014 340.255 47.5464C340.095 47.8653 340.009 48.2158 340.001 48.5725C339.994 48.9291 340.066 49.2828 340.213 49.608C340.29 49.7367 340.361 49.8693 340.424 50.0051Z" fill="white"/>
<path d="M342.216 65.8303C342.057 65.7453 341.921 65.6236 341.819 65.4755C341.555 65.1319 341.415 64.709 341.422 64.2757C341.432 63.8449 341.584 63.4293 341.853 63.0928C342.064 62.8393 342.25 62.7379 342.258 62.7548C342.137 62.874 342.025 63.0011 341.92 63.1351C341.678 63.4694 341.548 63.8715 341.548 64.2841C341.548 64.6968 341.678 65.0989 341.92 65.4332C342.064 65.6698 342.225 65.8303 342.216 65.8303Z" fill="white"/>
<path d="M343.822 73.105C343.705 72.9996 343.613 72.8698 343.552 72.7248C343.384 72.3799 343.297 72.0014 343.297 71.618C343.297 71.2345 343.384 70.8561 343.552 70.5111C343.616 70.3678 343.708 70.2386 343.822 70.1309C343.822 70.1309 343.729 70.2915 343.619 70.5449C343.477 70.8848 343.404 71.2495 343.404 71.618C343.404 71.9864 343.477 72.3511 343.619 72.691C343.729 72.9529 343.839 73.0966 343.822 73.105Z" fill="white"/>
<path d="M358.025 42.1221C357.984 42.0213 357.953 41.9166 357.932 41.8095C357.894 41.6848 357.862 41.5578 357.839 41.4293C357.839 41.2772 357.772 41.1082 357.747 40.9139C357.679 40.472 357.642 40.0259 357.637 39.5789C357.629 39.0139 357.662 38.4491 357.738 37.8891C357.823 37.3456 357.947 36.8091 358.11 36.2838C358.243 35.8529 358.406 35.4321 358.6 35.0249C358.676 34.8559 358.76 34.7038 358.828 34.5686L359.022 34.2306C359.078 34.1336 359.14 34.0404 359.208 33.9518C359.173 34.056 359.125 34.1553 359.065 34.2475L358.887 34.5939C358.82 34.7291 358.744 34.8812 358.667 35.0586C358.515 35.4051 358.355 35.836 358.203 36.3091C358.055 36.8343 357.936 37.3675 357.848 37.906C357.776 38.4466 357.739 38.9913 357.738 39.5367C357.741 39.9801 357.769 40.423 357.823 40.8632C357.823 41.0575 357.873 41.2265 357.899 41.3701C357.924 41.5138 357.949 41.649 357.975 41.7503C358.006 41.8718 358.023 41.9966 358.025 42.1221Z" fill="white"/>
<path d="M354.619 231.678L355.574 232.768L360.745 247.36C360.247 248.492 359.522 249.51 358.615 250.351C357.708 251.193 356.639 251.839 355.473 252.252L340.214 257.625C340.214 257.625 337.738 258.403 336.707 255.209C336.707 255.209 335.947 253.646 337.18 252.801C337.18 252.801 333.877 253.257 332.956 251.026C332.035 248.796 333.598 247.951 333.598 247.951C333.598 247.951 330.725 248.796 329.652 246.261C328.579 243.726 329.922 243.008 329.922 243.008C329.922 243.008 326.602 243.98 325.85 240.997C325.735 240.608 325.699 240.201 325.744 239.798C325.788 239.395 325.912 239.005 326.109 238.65C326.305 238.296 326.57 237.984 326.889 237.732C327.207 237.481 327.572 237.296 327.962 237.187L338.811 233.342L348.325 229.963C349.424 229.577 350.615 229.534 351.739 229.84C352.863 230.147 353.868 230.788 354.619 231.678Z" fill="#EBEBEB"/>
<path d="M350.251 229.743C350.251 229.743 345.655 228.755 342.875 226.363C341.534 225.161 340.393 223.752 339.496 222.19L338.651 219.984C338.515 219.616 338.242 219.315 337.89 219.144C337.537 218.972 337.132 218.943 336.758 219.063C335.63 219.521 334.708 220.374 334.165 221.463C333.623 222.552 333.496 223.802 333.81 224.978C334.95 229.591 337.476 231.737 338.203 232.903L338.93 234.086L350.251 229.743Z" fill="#EBEBEB"/>
<path d="M359.752 250.579L370.407 246.802L362.731 225.149L352.076 228.926L359.752 250.579Z" fill="#EBEBEB"/>
<path d="M359.756 250.553C359.756 250.553 357.998 245.72 355.877 239.738C353.757 233.756 352.058 228.898 352.084 228.898C352.109 228.898 353.841 233.731 355.962 239.713C358.083 245.695 359.781 250.545 359.756 250.553Z" fill="#E0E0E0"/>
<path d="M370.41 246.777C370.41 246.777 368.653 241.944 366.532 235.962C364.412 229.98 362.713 225.13 362.739 225.122C362.764 225.113 364.496 229.954 366.617 235.936C368.737 241.918 370.436 246.768 370.41 246.777Z" fill="#E0E0E0"/>
<path d="M357.577 232.523C357.717 232.916 357.971 233.258 358.307 233.507C358.642 233.756 359.043 233.899 359.46 233.92C359.877 233.941 360.291 233.838 360.649 233.624C361.007 233.409 361.294 233.094 361.473 232.717C361.652 232.34 361.716 231.918 361.655 231.505C361.595 231.092 361.414 230.706 361.134 230.396C360.855 230.086 360.49 229.866 360.085 229.763C359.68 229.661 359.254 229.68 358.861 229.819C358.333 230.008 357.901 230.399 357.66 230.906C357.42 231.413 357.39 231.994 357.577 232.523Z" fill="white"/>
<path d="M336.344 234.297C336.344 234.297 337.493 233.841 338.929 233.334C340.365 232.827 341.531 232.43 341.54 232.489C341.548 232.548 340.391 232.945 338.954 233.452C337.518 233.959 336.352 234.314 336.344 234.297Z" fill="#E0E0E0"/>
<path d="M333.447 248.162C333.447 248.162 334.173 247.858 335.094 247.537C335.647 247.322 336.211 247.139 336.784 246.988C336.246 247.227 335.696 247.438 335.137 247.621C334.583 247.832 334.019 248.012 333.447 248.162Z" fill="#E0E0E0"/>
<path d="M329.695 243.101C329.695 243.101 330.735 242.687 332.036 242.256C333.337 241.825 334.393 241.411 334.401 241.462C334.41 241.513 333.362 241.876 332.061 242.307C330.76 242.738 329.738 243.127 329.695 243.101Z" fill="#E0E0E0"/>
<path d="M336.522 253.097C336.522 253.097 337.561 252.683 338.862 252.252C340.163 251.821 341.219 251.407 341.228 251.466C341.236 251.525 340.189 251.88 338.887 252.311C337.586 252.742 336.53 253.122 336.522 253.097Z" fill="#E0E0E0"/>
<path d="M354.814 228.628C354.814 228.628 356.284 228.053 358.126 227.403C359.968 226.752 361.455 226.245 361.506 226.271C361.556 226.296 360.036 226.837 358.194 227.487C356.352 228.138 354.822 228.645 354.814 228.628Z" fill="white"/>
<path d="M331.173 246.785L331.063 246.701C330.974 246.614 330.892 246.521 330.818 246.422C330.708 246.272 330.614 246.11 330.539 245.94C330.444 245.732 330.373 245.514 330.328 245.29C330.287 245.067 330.27 244.84 330.277 244.614C330.291 244.428 330.322 244.244 330.37 244.064C330.4 243.942 330.443 243.823 330.497 243.71C330.497 243.633 330.556 243.591 330.565 243.591C330.573 243.591 330.497 243.777 330.429 244.073C330.391 244.251 330.369 244.432 330.362 244.614C330.359 244.834 330.376 245.055 330.413 245.273C330.458 245.489 330.523 245.701 330.607 245.906C330.683 246.072 330.771 246.233 330.869 246.388C331.046 246.641 331.181 246.777 331.173 246.785Z" fill="white"/>
<path d="M327.65 241.859C327.531 241.841 327.418 241.795 327.32 241.724C327.07 241.567 326.864 241.349 326.721 241.09C326.575 240.833 326.499 240.541 326.501 240.245C326.49 240.124 326.51 240.002 326.56 239.891C326.56 239.891 326.56 240.026 326.56 240.245C326.582 240.527 326.662 240.8 326.797 241.048C326.935 241.294 327.125 241.508 327.354 241.673C327.532 241.8 327.658 241.851 327.65 241.859Z" fill="white"/>
<path d="M335.136 251.99C334.993 251.992 334.851 251.96 334.722 251.897C334.405 251.766 334.141 251.535 333.97 251.238C333.808 250.935 333.749 250.588 333.801 250.249C333.816 250.11 333.865 249.976 333.945 249.861C333.945 249.861 333.894 250.013 333.869 250.258C333.831 250.582 333.896 250.91 334.055 251.195C334.215 251.477 334.456 251.704 334.747 251.846C334.976 251.947 335.136 251.973 335.136 251.99Z" fill="white"/>
<path d="M339.124 256.358C339.002 256.33 338.887 256.278 338.786 256.206C338.532 256.037 338.321 255.812 338.169 255.547C338.017 255.289 337.928 255 337.907 254.702C337.878 254.58 337.878 254.452 337.907 254.33C337.907 254.33 337.907 254.474 337.907 254.693C337.943 254.991 338.038 255.278 338.186 255.538C338.336 255.789 338.531 256.009 338.761 256.189C338.885 256.237 339.007 256.294 339.124 256.358Z" fill="white"/>
<path d="M336.607 229.498L336.412 229.312C336.338 229.243 336.267 229.17 336.201 229.093C336.117 229 336.024 228.898 335.931 228.78C335.712 228.512 335.512 228.23 335.331 227.935C335.11 227.56 334.915 227.171 334.748 226.769C334.589 226.363 334.461 225.945 334.368 225.519C334.287 225.171 334.234 224.818 334.207 224.462C334.207 224.319 334.207 224.175 334.207 224.057C334.207 223.939 334.207 223.837 334.207 223.753C334.2 223.666 334.2 223.578 334.207 223.491C334.22 223.578 334.22 223.666 334.207 223.753C334.207 223.837 334.207 223.939 334.207 224.057C334.207 224.175 334.207 224.31 334.207 224.462C334.207 224.758 334.3 225.113 334.385 225.502C334.667 226.686 335.19 227.799 335.922 228.771C336.015 228.898 336.1 229 336.176 229.093L336.379 229.329C336.46 229.377 336.537 229.434 336.607 229.498Z" fill="white"/>
<path d="M222.703 335.56H181.564C175.353 335.56 170.318 340.595 170.318 346.806V387.944C170.318 394.155 175.353 399.19 181.564 399.19H222.703C228.914 399.19 233.949 394.155 233.949 387.944V346.806C233.949 340.595 228.914 335.56 222.703 335.56Z" fill="#E0E0E0"/>
<path d="M211.272 335.56H170.133C163.922 335.56 158.887 340.595 158.887 346.806V387.944C158.887 394.155 163.922 399.19 170.133 399.19H211.272C217.483 399.19 222.517 394.155 222.517 387.944V346.806C222.517 340.595 217.483 335.56 211.272 335.56Z" fill="#EBEBEB"/>
<path d="M168.74 368.292L175.144 361.879L187.505 372.871L208.155 352.145L214.103 358.55L186.593 385.232L168.74 368.292Z" fill="white"/>
<path d="M75.7728 349.214H48.8962C42.6853 349.214 37.6504 354.249 37.6504 360.459V387.336C37.6504 393.547 42.6853 398.582 48.8962 398.582H75.7728C81.9837 398.582 87.0186 393.547 87.0186 387.336V360.459C87.0186 354.249 81.9837 349.214 75.7728 349.214Z" fill="#E0E0E0"/>
<path d="M66.91 349.214H40.0334C33.8225 349.214 28.7876 354.249 28.7876 360.459V387.336C28.7876 393.547 33.8225 398.582 40.0334 398.582H66.91C73.1209 398.582 78.1558 393.547 78.1558 387.336V360.459C78.1558 354.249 73.1209 349.214 66.91 349.214Z" fill="#EBEBEB"/>
<path d="M36.425 374.612L41.4016 369.635L50.9913 378.16L67.0024 362.082L71.6241 367.058L50.2816 387.75L36.425 374.612Z" fill="white"/>
<path d="M377.774 397.129C377.774 397.247 301.732 397.348 208.031 397.348C114.331 397.348 38.2717 397.247 38.2717 397.129C38.2717 397.01 114.263 396.909 208.031 396.909C301.8 396.909 377.774 397.036 377.774 397.129Z" fill="#263238"/>
<path d="M343.754 372.922C343.754 372.922 340.23 348.715 340.526 334.622C340.822 320.529 340.526 304.687 340.526 304.687H342.148C342.148 304.687 341.05 332.653 342.25 349.518C343.45 366.382 346.593 372.922 346.593 372.922H343.771" fill="#263238"/>
<path d="M354.248 277.447C353.994 276.589 353.477 275.832 352.769 275.284C351.739 274.633 350.387 274.904 349.238 275.284C344.337 277.016 339.986 286.158 338.009 290.965L344.515 312.933C356.267 302.025 358.304 287.729 354.248 277.447Z" fill="#455A64"/>
<path d="M352.388 276.213C352.367 276.312 352.336 276.408 352.295 276.501L351.974 277.295C351.687 277.988 351.29 278.985 350.808 280.235C349.853 282.77 348.628 286.209 347.538 290.137C346.448 294.066 345.705 297.674 345.24 300.276C345.003 301.594 344.835 302.659 344.725 303.394C344.666 303.741 344.623 304.019 344.581 304.239C344.57 304.34 344.548 304.439 344.513 304.535C344.504 304.434 344.504 304.332 344.513 304.231C344.513 304.002 344.564 303.724 344.598 303.386C344.682 302.642 344.826 301.569 345.037 300.243C345.588 296.802 346.33 293.394 347.259 290.036C348.204 286.679 349.332 283.376 350.639 280.142C351.146 278.9 351.568 277.912 351.89 277.236C352.033 276.915 352.151 276.661 352.253 276.45C352.289 276.366 352.334 276.287 352.388 276.213Z" fill="#263238"/>
<path d="M341.624 318.188C338.661 316.502 336.182 314.083 334.424 311.162C332.667 308.241 331.689 304.917 331.587 301.51C331.358 296.643 332.854 291.87 334.544 287.299C334.647 286.885 334.892 286.52 335.237 286.268C335.516 286.162 335.819 286.13 336.115 286.174C336.41 286.218 336.69 286.338 336.926 286.521C341.354 289.056 344.041 293.864 345.477 298.764C346.497 302.011 346.837 305.434 346.474 308.818C345.916 312.379 344.224 315.665 341.649 318.188" fill="#455A64"/>
<path d="M341.625 318.188C341.614 318.09 341.614 317.991 341.625 317.893C341.625 317.673 341.625 317.394 341.625 317.048C341.625 316.321 341.625 315.265 341.532 313.955C341.36 310.556 340.982 307.17 340.4 303.817C339.724 299.888 338.904 296.373 338.296 293.83L337.578 290.813C337.502 290.484 337.434 290.213 337.392 289.968C337.353 289.893 337.322 289.814 337.299 289.732C337.343 289.821 337.376 289.914 337.4 290.011C337.46 290.222 337.536 290.492 337.637 290.813C337.84 291.523 338.11 292.503 338.482 293.804C339.133 296.339 339.986 299.854 340.67 303.8C341.252 307.151 341.605 310.539 341.726 313.939C341.726 315.24 341.726 316.304 341.726 317.031L341.684 317.876C341.677 317.982 341.657 318.087 341.625 318.188Z" fill="#263238"/>
<g opacity="0.3">
<path d="M341.623 318.188C338.661 316.502 336.181 314.083 334.424 311.162C332.666 308.241 331.689 304.917 331.586 301.51C331.358 296.643 332.853 291.869 334.543 287.299C334.646 286.884 334.892 286.52 335.236 286.268C335.516 286.162 335.818 286.13 336.114 286.174C336.41 286.218 336.689 286.338 336.926 286.521C341.353 289.056 344.04 293.863 345.476 298.764C346.496 302.011 346.836 305.434 346.473 308.818C345.915 312.379 344.223 315.665 341.649 318.188" fill="black"/>
</g>
<path d="M348.511 355.229C354.51 356.556 359.495 360.789 365.249 362.834C369.085 364.194 373.419 364.676 376.478 367.354C375.743 365.504 374.002 364.27 372.312 363.214C367.533 360.23 362.431 357.798 357.104 355.964C354.375 355.027 351.418 354.275 348.655 355.01" fill="#455A64"/>
<path d="M339.833 360.586C332.313 360.459 324.397 354.055 316.911 353.675C324.743 351.14 335.955 353.21 339.833 360.586Z" fill="#455A64"/>
<path d="M342.764 342.539C346.638 341.258 350.771 340.968 354.787 341.694C358.781 342.427 362.706 343.492 366.523 344.879C366.134 342.268 363.988 340.308 362.036 338.576C360.588 337.22 359.011 336.006 357.33 334.952C355.637 333.891 353.675 333.337 351.677 333.355C350.479 333.432 349.308 333.751 348.236 334.291C347.163 334.831 346.21 335.581 345.434 336.498C343.915 338.157 342.978 340.266 342.764 342.505" fill="#455A64"/>
<path d="M327.328 334.242C322.597 330.195 315.423 330.592 309.196 330.735C319.192 335.499 328.619 341.374 337.298 348.25C337.568 343.848 333.31 339.345 327.328 334.242Z" fill="#455A64"/>
<g opacity="0.3">
<path d="M327.328 334.242C322.596 330.195 315.423 330.592 309.196 330.735C319.192 335.499 328.618 341.374 337.298 348.25C337.568 343.848 333.31 339.345 327.328 334.242Z" fill="black"/>
</g>
<path d="M344.903 328.657C347.214 327.057 349.649 325.644 352.186 324.432C354.67 323.3 357.002 321.501 359.401 320.208C362.528 318.518 365.231 316.169 368.096 314.074C370.96 311.978 374.103 310.086 377.609 309.528C374.723 309.016 371.756 309.19 368.949 310.035C366.153 310.877 363.426 311.936 360.796 313.204C357.103 314.893 353.352 316.583 350.327 319.27C347.302 321.957 344.582 324.635 344.903 328.674" fill="#455A64"/>
<path d="M365.112 360.586L364.876 360.485L364.217 360.138C363.651 359.843 362.839 359.395 361.817 358.879C361.31 358.609 360.744 358.33 360.127 358.035C359.51 357.739 358.868 357.443 358.175 357.139C356.68 356.472 355.131 355.932 353.545 355.525C351.971 355.092 350.315 355.051 348.721 355.407C348.025 355.558 347.342 355.762 346.676 356.015C345.266 356.582 343.995 357.446 342.95 358.55C342.519 359.015 342.308 359.302 342.283 359.285C342.321 359.208 342.367 359.134 342.418 359.065C342.56 358.863 342.712 358.668 342.874 358.482C343.47 357.788 344.161 357.182 344.927 356.683C345.46 356.33 346.026 356.03 346.617 355.787C347.289 355.516 347.981 355.299 348.687 355.136C350.317 354.758 352.017 354.793 353.63 355.238C355.233 355.648 356.797 356.199 358.302 356.885C358.995 357.198 359.654 357.502 360.254 357.815C360.854 358.127 361.42 358.398 361.944 358.66C362.958 359.2 363.76 359.665 364.31 360.003L364.943 360.383C365.045 360.527 365.121 360.578 365.112 360.586Z" fill="#263238"/>
<path d="M334.216 356.86C334.38 356.878 334.54 356.924 334.689 356.995C335.108 357.147 335.517 357.324 335.914 357.528C338.559 358.873 340.747 360.973 342.2 363.56C342.418 363.95 342.61 364.354 342.775 364.768C342.849 364.915 342.903 365.072 342.935 365.233C342.893 365.233 342.614 364.616 342.031 363.662C341.274 362.425 340.363 361.289 339.319 360.282C338.267 359.29 337.091 358.438 335.821 357.747C334.849 357.156 334.199 356.902 334.216 356.86Z" fill="#263238"/>
<path d="M317.579 333.862L317.9 333.955L318.795 334.276L320.223 334.799C320.781 335.011 321.381 335.315 322.057 335.644C325.585 337.279 328.878 339.379 331.849 341.888C333.483 343.266 335.022 344.754 336.454 346.341C337.604 347.652 338.684 349.023 339.69 350.447C340.535 351.664 341.202 352.678 341.65 353.371L342.166 354.216C342.226 354.307 342.28 354.403 342.326 354.503C342.248 354.425 342.177 354.34 342.115 354.249C341.988 354.072 341.794 353.81 341.557 353.464C341.084 352.779 340.417 351.774 339.538 350.591C338.659 349.408 337.561 348.005 336.268 346.535C334.849 344.953 333.328 343.466 331.714 342.083C328.756 339.593 325.497 337.484 322.014 335.805C321.338 335.501 320.747 335.18 320.198 334.96L318.795 334.394L317.866 334.005C317.765 333.969 317.668 333.921 317.579 333.862Z" fill="#263238"/>
<path d="M354.045 338.314C353.843 338.312 353.642 338.286 353.445 338.238L352.761 338.112C352.491 338.061 352.178 338.052 351.832 338.019C350.049 337.866 348.259 338.221 346.669 339.041C345.796 339.495 345 340.086 344.312 340.79C343.737 341.352 343.23 341.978 342.8 342.657C342.409 343.288 342.065 343.946 341.769 344.626C341.79 344.425 341.842 344.229 341.921 344.043C342.111 343.525 342.352 343.027 342.639 342.556C343.057 341.85 343.559 341.197 344.135 340.612C344.833 339.882 345.646 339.271 346.543 338.804C348.173 337.953 350.022 337.614 351.849 337.833C352.195 337.883 352.516 337.892 352.786 337.959L353.471 338.137C353.668 338.174 353.861 338.234 354.045 338.314Z" fill="#263238"/>
<path d="M361.607 314.868C361.519 314.937 361.423 314.994 361.32 315.037L360.475 315.493C359.748 315.89 358.692 316.473 357.416 317.225C356.14 317.977 354.653 318.915 353.065 320.056C351.328 321.27 349.699 322.632 348.198 324.128C347.425 324.896 346.757 325.762 346.213 326.705C345.714 327.652 345.249 328.564 344.81 329.443C344.034 330.992 343.337 332.58 342.723 334.2C342.317 335.304 341.978 336.433 341.709 337.579C341.515 338.382 341.447 338.838 341.422 338.83C341.397 338.821 341.422 338.72 341.422 338.5C341.422 338.28 341.498 337.959 341.582 337.554C341.812 336.406 342.126 335.276 342.52 334.174C343.107 332.536 343.79 330.934 344.565 329.375C344.996 328.488 345.461 327.567 345.951 326.621C346.506 325.653 347.188 324.763 347.978 323.976C349.492 322.469 351.138 321.1 352.896 319.887C354.501 318.755 356.014 317.834 357.298 317.09C358.582 316.347 359.655 315.806 360.399 315.4L361.244 314.995C361.359 314.938 361.481 314.895 361.607 314.868Z" fill="#263238"/>
<path d="M340.517 337.638C340.448 337.432 340.397 337.22 340.365 337.005C340.28 336.54 340.171 335.957 340.035 335.264C339.68 333.355 339.206 331.47 338.616 329.62C338.007 327.777 337.29 325.972 336.47 324.213L335.735 322.599C335.634 322.408 335.555 322.207 335.498 321.999C335.631 322.171 335.741 322.358 335.828 322.557C336.031 322.92 336.309 323.461 336.673 324.128C338.444 327.618 339.655 331.364 340.264 335.23C340.382 335.974 340.466 336.574 340.509 336.988C340.532 337.204 340.535 337.422 340.517 337.638Z" fill="#263238"/>
<path d="M339.977 320.529C339.738 317.681 338.903 314.915 337.527 312.409C335.669 308.967 333.08 305.973 329.942 303.637C326.804 301.302 323.193 299.682 319.362 298.891L336.184 323.959L338.355 328.437C339.728 326.043 340.297 323.271 339.977 320.529Z" fill="#455A64"/>
<path d="M364.098 369.931H324.987V376.859H364.098V369.931Z" fill="#FFCA2C"/>
<path d="M327.91 375.49L331.239 396.993H357.203L361.174 375.49H327.91Z" fill="#FFCA2C"/>
<path d="M364.082 376.868C364.082 376.944 355.253 377.011 344.379 377.011C333.505 377.011 324.676 376.944 324.676 376.868C324.676 376.792 333.497 376.732 344.379 376.732C355.262 376.732 364.082 376.758 364.082 376.868Z" fill="#263238"/>
<path d="M121.118 339.937H86.4257C80.2148 339.937 75.1799 344.971 75.1799 351.182V385.874C75.1799 392.085 80.2148 397.12 86.4257 397.12H121.118C127.329 397.12 132.364 392.085 132.364 385.874V351.182C132.364 344.971 127.329 339.937 121.118 339.937Z" fill="#FFCA2C"/>
<g opacity="0.3">
<path d="M121.119 339.937H86.4264C80.2156 339.937 75.1807 344.971 75.1807 351.182V385.874C75.1807 392.085 80.2156 397.12 86.4264 397.12H121.119C127.329 397.12 132.364 392.085 132.364 385.874V351.182C132.364 344.971 127.329 339.937 121.119 339.937Z" fill="black"/>
</g>
<path d="M110.853 339.937H76.1608C69.9499 339.937 64.915 344.971 64.915 351.182V385.874C64.915 392.085 69.9499 397.12 76.1608 397.12H110.853C117.064 397.12 122.099 392.085 122.099 385.874V351.182C122.099 344.971 117.064 339.937 110.853 339.937Z" fill="#FFCA2C"/>
<path d="M73.7622 369.356L79.5245 363.594L90.6351 373.471L109.181 354.849L114.529 360.603L89.8071 384.582L73.7622 369.356Z" fill="white"/>
<path d="M151.147 360.544H128.478C124.637 360.544 121.524 363.657 121.524 367.498V390.167C121.524 394.007 124.637 397.12 128.478 397.12H151.147C154.987 397.12 158.1 394.007 158.1 390.167V367.498C158.1 363.657 154.987 360.544 151.147 360.544Z" fill="#263238"/>
<path d="M144.581 360.544H121.912C118.071 360.544 114.958 363.657 114.958 367.498V390.167C114.958 394.007 118.071 397.12 121.912 397.12H144.581C148.421 397.12 151.534 394.007 151.534 390.167V367.498C151.534 363.657 148.421 360.544 144.581 360.544Z" fill="#455A64"/>
<path d="M120.62 379.36L124.304 375.676L131.41 381.996L143.281 370.083L146.703 373.767L130.886 389.102L120.62 379.36Z" fill="white"/>
<path d="M241.56 29.2118H65.0414C61.6816 29.2118 58.958 31.9355 58.958 35.2952V281.485C58.958 284.845 61.6816 287.569 65.0414 287.569H241.56C244.92 287.569 247.644 284.845 247.644 281.485V35.2952C247.644 31.9355 244.92 29.2118 241.56 29.2118Z" fill="white"/>
<path d="M241.56 287.569C242.322 287.556 243.074 287.404 243.782 287.121C244.654 286.771 245.43 286.218 246.046 285.507C246.908 284.54 247.441 283.324 247.567 282.035C247.609 276.12 247.567 267.468 247.567 256.29C247.567 233.934 247.525 201.582 247.499 161.609C247.499 141.619 247.499 119.727 247.499 96.2218C247.499 84.4719 247.499 72.3277 247.499 59.7892V35.9204C247.615 34.3188 247.093 32.7365 246.046 31.5185C245.536 30.9099 244.908 30.4117 244.199 30.0543C243.49 29.6969 242.716 29.4879 241.923 29.44C240.309 29.44 238.645 29.44 236.997 29.44H65.0409C64.1205 29.4429 63.2136 29.6606 62.3922 30.0757C61.5708 30.4908 60.8576 31.0919 60.3094 31.8311C59.7525 32.5762 59.387 33.4465 59.2448 34.3658C59.1527 35.2978 59.1245 36.235 59.1603 37.1709V70.8998C59.1603 85.7533 59.1603 100.379 59.1603 114.776C59.1603 143.503 59.1603 171.284 59.1603 197.713C59.1603 224.141 59.1603 249.252 59.1603 272.775V281.511C59.1737 282.92 59.6855 284.279 60.6051 285.347C61.5149 286.404 62.7742 287.1 64.1537 287.307C64.8463 287.386 65.5439 287.414 66.2406 287.391H80.79H112.162L206.842 287.459L232.587 287.501H239.279H241.56H239.279H232.587H206.842L112.162 287.577H66.2153C65.5019 287.602 64.7875 287.577 64.0777 287.501C62.6079 287.272 61.2676 286.528 60.2969 285.401C59.3262 284.274 58.7885 282.838 58.7801 281.35C58.7801 278.461 58.7801 275.549 58.7801 272.614C58.7801 249.1 58.7801 223.989 58.7801 197.552C58.7801 171.115 58.7801 143.376 58.7801 114.616V37.1033C58.7442 36.1448 58.7752 35.1849 58.873 34.2306C59.0295 33.2531 59.421 32.3282 60.0136 31.5354C60.6021 30.7464 61.3671 30.1062 62.2474 29.666C63.1277 29.2259 64.0989 28.998 65.0831 29.0006H237.039C238.729 29.0006 240.326 29.0006 241.991 29.0006C242.836 29.0557 243.662 29.2809 244.418 29.6627C245.175 30.0445 245.846 30.5751 246.393 31.2227C247.474 32.5258 248.004 34.1988 247.871 35.8866V40.7364C247.871 47.1747 247.871 53.5228 247.871 59.7807C247.871 72.3023 247.871 84.4465 247.871 96.2133C247.871 119.719 247.871 141.61 247.871 161.601C247.871 201.574 247.812 233.925 247.795 256.282C247.795 267.468 247.795 276.137 247.728 282.035C247.598 283.344 247.05 284.577 246.165 285.55C245.535 286.252 244.747 286.794 243.866 287.13C243.326 287.344 242.756 287.475 242.177 287.518L241.56 287.569Z" fill="#263238"/>
<path d="M213.139 106.057H129.493C126.553 106.057 124.17 108.44 124.17 111.379V111.895C124.17 114.835 126.553 117.218 129.493 117.218H213.139C216.079 117.218 218.462 114.835 218.462 111.895V111.379C218.462 108.44 216.079 106.057 213.139 106.057Z" fill="#E0E0E0"/>
<path d="M109.652 99.3986H92.4837C90.0852 99.3986 88.1409 101.343 88.1409 103.741V120.91C88.1409 123.309 90.0852 125.253 92.4837 125.253H109.652C112.051 125.253 113.995 123.309 113.995 120.91V103.741C113.995 101.343 112.051 99.3986 109.652 99.3986Z" fill="#FFCA2C"/>
<path d="M92.1372 112.698L94.748 110.095L99.7668 114.565L108.157 106.141L110.573 108.743L99.395 119.584L92.1372 112.698Z" fill="white"/>
<path d="M213.139 146.164H129.493C126.553 146.164 124.17 148.548 124.17 151.487V152.003C124.17 154.943 126.553 157.326 129.493 157.326H213.139C216.079 157.326 218.462 154.943 218.462 152.003V151.487C218.462 148.548 216.079 146.164 213.139 146.164Z" fill="#E0E0E0"/>
<path d="M109.652 139.515H92.4837C90.0852 139.515 88.1409 141.459 88.1409 143.858V161.026C88.1409 163.425 90.0852 165.369 92.4837 165.369H109.652C112.051 165.369 113.995 163.425 113.995 161.026V143.858C113.995 141.459 112.051 139.515 109.652 139.515Z" fill="#FFCA2C"/>
<path d="M92.1372 152.814L94.748 150.212L99.7668 154.673L108.157 146.257L110.573 148.86L99.395 159.7L92.1372 152.814Z" fill="white"/>
<path d="M213.139 186.281H129.493C126.553 186.281 124.17 188.664 124.17 191.604V192.119C124.17 195.059 126.553 197.442 129.493 197.442H213.139C216.079 197.442 218.462 195.059 218.462 192.119V191.604C218.462 188.664 216.079 186.281 213.139 186.281Z" fill="#E0E0E0"/>
<path d="M109.652 179.623H92.4837C90.0852 179.623 88.1409 181.567 88.1409 183.966V201.134C88.1409 203.533 90.0852 205.477 92.4837 205.477H109.652C112.051 205.477 113.995 203.533 113.995 201.134V183.966C113.995 181.567 112.051 179.623 109.652 179.623Z" fill="#FFCA2C"/>
<path d="M92.1372 192.922L94.748 190.32L99.7668 194.789L108.157 186.365L110.573 188.968L99.395 199.808L92.1372 192.922Z" fill="white"/>
<path d="M213.139 226.389H129.493C126.553 226.389 124.17 228.772 124.17 231.712V232.227C124.17 235.167 126.553 237.55 129.493 237.55H213.139C216.079 237.55 218.462 235.167 218.462 232.227V231.712C218.462 228.772 216.079 226.389 213.139 226.389Z" fill="#E0E0E0"/>
<path d="M109.652 219.739H92.4837C90.0852 219.739 88.1409 221.684 88.1409 224.082V241.251C88.1409 243.649 90.0852 245.594 92.4837 245.594H109.652C112.051 245.594 113.995 243.649 113.995 241.251V224.082C113.995 221.684 112.051 219.739 109.652 219.739Z" fill="#FFCA2C"/>
<path d="M92.1372 233.038L94.748 230.436L99.7668 234.897L108.157 226.473L110.573 229.084L99.395 239.924L92.1372 233.038Z" fill="white"/>
<path d="M280.864 367.286L280.138 386.356C280.138 386.356 299.275 393.504 299.495 397.036L262.454 396.96L262.369 367.193L280.864 367.286Z" fill="#263238"/>
<path d="M268.688 384.725C268.339 384.833 268.04 385.063 267.848 385.374C267.655 385.684 267.581 386.054 267.64 386.415C267.733 386.774 267.96 387.084 268.274 387.281C268.589 387.478 268.967 387.546 269.33 387.471C269.707 387.357 270.028 387.107 270.231 386.77C270.434 386.433 270.504 386.032 270.429 385.646C270.291 385.282 270.019 384.985 269.668 384.816C269.317 384.648 268.915 384.621 268.545 384.742" fill="#E0E0E0"/>
<path d="M262.455 396.96L262.565 393.96L298.051 395.16C298.051 395.16 299.741 395.878 299.513 397.036L262.455 396.96Z" fill="#455A64"/>
<path d="M280.739 386.17C280.739 386.348 279.826 386.432 278.939 387.015C278.052 387.598 277.57 388.35 277.401 388.274C277.232 388.198 277.511 387.159 278.601 386.483C279.691 385.807 280.781 386.001 280.739 386.17Z" fill="white"/>
<path d="M284.616 387.784C284.659 387.961 283.881 388.265 283.264 389.026C282.648 389.786 282.47 390.606 282.284 390.597C282.099 390.589 281.997 389.567 282.774 388.629C283.552 387.691 284.616 387.615 284.616 387.784Z" fill="white"/>
<path d="M286.811 392.439C286.651 392.439 286.397 391.594 286.871 390.581C287.344 389.567 288.18 389.203 288.256 389.355C288.332 389.507 287.808 390.031 287.411 390.851C287.014 391.67 286.997 392.422 286.811 392.439Z" fill="white"/>
<path d="M280.424 381.827C280.348 381.996 279.512 381.743 278.49 381.827C277.467 381.912 276.673 382.216 276.58 382.064C276.487 381.912 277.256 381.219 278.456 381.219C279.656 381.219 280.509 381.667 280.424 381.827Z" fill="white"/>
<path d="M235.527 364.684L233.524 387.742L237.183 406.33C237.246 406.648 237.242 406.976 237.173 407.293C237.103 407.611 236.969 407.91 236.779 408.173C236.589 408.436 236.347 408.658 236.067 408.823C235.788 408.988 235.477 409.095 235.155 409.135C234.781 409.184 234.401 409.141 234.046 409.012C233.692 408.883 233.374 408.67 233.119 408.391C229.824 404.792 217.742 391.493 217.987 389.803C218.265 387.86 218.494 365.394 218.494 365.394L235.527 364.684Z" fill="#263238"/>
<path d="M235.154 409.152L218.087 388.282L218.02 389.262C217.968 390.105 218.213 390.939 218.712 391.62C220.073 393.428 223.917 398.379 233.076 408.408C233.339 408.695 233.668 408.913 234.035 409.042C234.402 409.172 234.795 409.21 235.18 409.152H235.154Z" fill="#455A64"/>
<g opacity="0.6">
<path d="M223.292 381.151C223.561 381.379 223.737 381.697 223.787 382.046C223.837 382.395 223.757 382.75 223.562 383.044C223.344 383.321 223.029 383.506 222.681 383.559C222.332 383.612 221.977 383.531 221.686 383.331C221.402 383.088 221.217 382.748 221.167 382.377C221.117 382.006 221.205 381.63 221.416 381.32C221.672 381.055 222.021 380.899 222.389 380.884C222.758 380.87 223.117 380.999 223.393 381.244" fill="white"/>
</g>
<path d="M230.532 398.725C231.133 398.033 231.858 397.46 232.67 397.036C233.535 396.749 234.448 396.634 235.357 396.698C235.357 396.639 235.095 396.444 234.562 396.334C233.859 396.21 233.134 396.29 232.474 396.564C231.814 396.838 231.246 397.295 230.836 397.881C230.532 398.387 230.482 398.725 230.532 398.725Z" fill="white"/>
<path d="M231.977 401.936C232.662 401.616 233.364 401.334 234.081 401.091C234.835 401.002 235.594 400.954 236.353 400.948C236.012 400.705 235.618 400.547 235.204 400.486C234.79 400.426 234.367 400.466 233.971 400.601C232.585 400.897 231.859 401.869 231.977 401.936Z" fill="white"/>
<path d="M227.736 394.594C227.829 394.712 229.037 393.622 230.887 393.048C232.737 392.473 234.343 392.625 234.36 392.473C234.377 392.321 232.712 391.915 230.735 392.566C229.525 392.863 228.462 393.582 227.736 394.594Z" fill="white"/>
<path d="M227.762 387.547C227.812 387.691 229.114 387.243 230.778 387.285C232.443 387.328 233.727 387.818 233.786 387.674C232.887 387.111 231.852 386.801 230.791 386.779C229.731 386.757 228.684 387.022 227.762 387.547Z" fill="white"/>
<path d="M228.175 380.78C229.199 380.516 230.254 380.396 231.31 380.425C233.059 380.577 234.233 381.515 234.318 381.388C234.402 381.261 234.123 381.033 233.617 380.695C232.936 380.262 232.163 379.996 231.361 379.918C230.56 379.834 229.752 379.944 229.003 380.239C228.429 380.475 228.141 380.729 228.175 380.78Z" fill="white"/>
<path d="M231.352 379.132C231.446 378.861 231.478 378.572 231.445 378.287C231.418 377.484 231.231 376.694 230.896 375.964C230.699 375.404 230.321 374.926 229.823 374.603C229.65 374.515 229.453 374.482 229.26 374.507C229.067 374.533 228.886 374.616 228.742 374.747C228.479 375.024 228.325 375.387 228.311 375.769C228.322 376.545 228.599 377.293 229.095 377.888C229.592 378.483 230.279 378.89 231.04 379.039C231.797 379.165 232.574 379.064 233.274 378.748C233.973 378.432 234.563 377.916 234.969 377.265C235.07 377.1 235.135 376.914 235.158 376.722C235.182 376.529 235.163 376.334 235.104 376.149C235.026 375.969 234.894 375.819 234.725 375.718C234.557 375.618 234.361 375.574 234.166 375.592C233.59 375.68 233.048 375.919 232.594 376.285C231.934 376.742 231.362 377.314 230.905 377.974C230.717 378.199 230.579 378.461 230.499 378.743C231.157 377.915 231.931 377.187 232.797 376.58C233.201 376.279 233.675 376.084 234.174 376.014C234.281 376 234.389 376.022 234.482 376.075C234.575 376.128 234.648 376.211 234.69 376.31C234.719 376.433 234.723 376.561 234.701 376.686C234.679 376.811 234.632 376.93 234.563 377.037C234.196 377.59 233.677 378.026 233.069 378.292C232.461 378.559 231.789 378.645 231.133 378.541C230.487 378.417 229.903 378.078 229.475 377.579C229.046 377.08 228.8 376.451 228.775 375.795C228.779 375.531 228.874 375.277 229.046 375.076C229.122 374.998 229.222 374.947 229.33 374.93C229.438 374.913 229.549 374.932 229.646 374.983C230.064 375.257 230.388 375.652 230.575 376.116C231.011 377.067 231.274 378.088 231.352 379.132Z" fill="white"/>
<path d="M298.7 206.483C300.489 214.385 301.092 222.509 300.492 230.588C300.12 235.725 282.799 377.518 282.799 377.518H259.446L266.011 244.25L264.101 244.664C264.101 244.664 251.352 301.501 250.312 310.703C249.383 318.974 238.627 379.073 238.627 379.073L217.319 379.292L224.078 299.871L232.012 223.601L235.062 201.363L298.7 206.483Z" fill="#263238"/>
<path d="M265.166 235.21C265.166 235.21 265.208 235.277 265.318 235.37C265.487 235.495 265.68 235.584 265.884 235.632C266.269 235.714 266.667 235.71 267.05 235.62C267.433 235.529 267.791 235.354 268.098 235.108C268.539 234.732 268.9 234.271 269.16 233.753C269.42 233.235 269.573 232.67 269.611 232.092C269.779 230.825 269.805 229.464 269.898 228.02C270.058 225.13 270.177 222.519 270.236 220.627C270.308 219.605 270.308 218.581 270.236 217.56C270.046 218.566 269.936 219.586 269.906 220.61C269.763 222.502 269.594 225.105 269.433 227.994C269.34 229.431 269.323 230.825 269.188 232.033C269.139 233.105 268.675 234.117 267.895 234.855C267.626 235.087 267.311 235.261 266.97 235.366C266.63 235.471 266.272 235.504 265.918 235.463C265.66 235.402 265.408 235.318 265.166 235.21Z" fill="#455A64"/>
<path d="M230.837 221.497C231.038 221.613 231.258 221.694 231.487 221.733C232.099 221.893 232.724 221.997 233.355 222.046C235.45 222.225 237.558 221.911 239.51 221.127C241.462 220.343 243.202 219.113 244.592 217.534C245.01 217.059 245.389 216.55 245.724 216.013C245.864 215.82 245.972 215.606 246.045 215.38C245.977 215.38 245.454 216.174 244.355 217.306C242.943 218.779 241.233 219.935 239.339 220.695C237.445 221.456 235.41 221.804 233.371 221.716C231.783 221.666 230.837 221.421 230.837 221.497Z" fill="#455A64"/>
<path d="M289.399 215.566C289.392 216.36 289.512 217.15 289.754 217.906C290.739 221.648 292.938 224.959 296.006 227.318C296.614 227.834 297.298 228.253 298.034 228.56C298.135 228.434 294.916 226.6 292.483 222.882C290.049 219.165 289.551 215.515 289.399 215.566Z" fill="#455A64"/>
<path d="M360.732 175.449L366.089 177.139L375.823 171.757L381.348 187.143L368.1 190.294L358.062 189.187L360.732 175.449Z" fill="#AE7461"/>
<path d="M298.431 113.686C298.431 113.686 303.906 116.973 308.443 128.143C317.348 150.11 322.95 161.939 322.95 161.939L363.81 174.824L360.54 191.215C360.54 191.215 319.089 185.436 313.538 183.358C305.934 180.51 300.307 165.53 300.307 165.53L298.431 113.686Z" fill="#E0E0E0"/>
<path d="M287.159 64.47C288.208 64.5087 289.235 64.1637 290.048 63.4997C290.862 62.8357 291.405 61.8982 291.577 60.8625C291.749 59.8268 291.538 58.7639 290.982 57.8728C290.427 56.9816 289.567 56.3233 288.561 56.0209C289.186 55.3137 289.572 54.4276 289.664 53.4886C289.756 52.5496 289.549 51.6055 289.074 50.7905C288.599 49.9755 287.879 49.3311 287.016 48.9489C286.153 48.5667 285.192 48.4662 284.269 48.6617C284.184 47.7368 283.86 46.8499 283.329 46.0875C282.799 45.3251 282.08 44.7132 281.242 44.3115C280.405 43.9098 279.478 43.732 278.551 43.7955C277.624 43.859 276.73 44.1616 275.955 44.6737C274.867 43.8782 273.545 43.4686 272.198 43.5099C270.851 43.5513 269.557 44.0411 268.52 44.9018C267.611 44.7887 266.69 44.9694 265.891 45.4174C265.092 45.8653 264.457 46.5572 264.079 47.3917C263.702 48.2262 263.601 49.1597 263.792 50.0555C263.983 50.9514 264.455 51.7627 265.14 52.3709" fill="#263238"/>
<path d="M267.81 49.1771H268.756C273.351 48.945 277.864 50.4527 281.397 53.3997C284.929 56.3467 287.222 60.5166 287.817 65.0783C288.966 73.8823 290.124 83.6157 290.301 88.3556C290.673 98.1735 280.931 100.184 280.931 100.184L282.351 111.929L258.499 112.376L254.274 69.7253C252.88 59.5442 257.629 50.2839 267.81 49.1771Z" fill="#AE7461"/>
<path d="M281.015 100.134C276.472 100.353 271.96 99.2679 268.012 97.0076C268.012 97.0076 271.392 103.919 281.134 102.55L281.015 100.134Z" fill="#6F4439"/>
<path d="M284.285 74.0935C284.308 74.458 284.188 74.8171 283.949 75.0936C283.711 75.3701 283.373 75.5419 283.009 75.5721C282.655 75.61 282.3 75.5059 282.023 75.2825C281.746 75.0591 281.569 74.7348 281.53 74.3808C281.512 74.0161 281.635 73.6582 281.874 73.3824C282.114 73.1067 282.451 72.9345 282.815 72.9022C282.99 72.8835 283.166 72.8995 283.335 72.9493C283.504 72.9991 283.661 73.0817 283.797 73.1924C283.934 73.3031 284.047 73.4397 284.131 73.5944C284.215 73.749 284.267 73.9186 284.285 74.0935Z" fill="#263238"/>
<path d="M285.95 69.945C285.781 70.1394 284.683 69.4043 283.17 69.4803C281.658 69.5564 280.636 70.3675 280.424 70.1985C280.213 70.0295 280.5 69.7761 280.965 69.4043C281.595 68.9202 282.359 68.6428 283.153 68.6101C283.938 68.568 284.716 68.775 285.375 69.2015C285.857 69.5395 286.026 69.8605 285.95 69.945Z" fill="#263238"/>
<path d="M270.547 74.4738C270.561 74.6576 270.538 74.8424 270.48 75.0173C270.422 75.1923 270.33 75.354 270.209 75.4931C270.088 75.6322 269.94 75.7459 269.775 75.8276C269.61 75.9093 269.43 75.9575 269.246 75.9693C269.068 75.9928 268.888 75.9804 268.715 75.9328C268.543 75.8852 268.382 75.8035 268.241 75.6923C268.101 75.5812 267.985 75.4429 267.899 75.2859C267.813 75.1288 267.76 74.956 267.742 74.7779C267.721 74.414 267.842 74.0561 268.08 73.7801C268.318 73.5041 268.655 73.3317 269.018 73.2993C269.196 73.272 269.378 73.2811 269.552 73.3259C269.727 73.3707 269.89 73.4504 270.033 73.5601C270.176 73.6698 270.295 73.8074 270.383 73.9644C270.472 74.1214 270.527 74.2947 270.547 74.4738Z" fill="#263238"/>
<path d="M271.139 70.9674C270.97 71.1532 269.871 70.4182 268.367 70.5027C266.863 70.5871 265.79 71.3476 265.613 71.2124C265.435 71.0772 265.689 70.7984 266.154 70.4182C266.784 69.9341 267.548 69.6567 268.342 69.6239C269.128 69.5826 269.906 69.7928 270.564 70.2238C271.046 70.5533 271.215 70.8998 271.139 70.9674Z" fill="#263238"/>
<path d="M277.163 81.8836C277.947 81.5953 278.765 81.4052 279.596 81.3175C279.976 81.2584 280.339 81.1654 280.39 80.9035C280.4 80.5035 280.292 80.1094 280.078 79.7713C279.664 78.8588 279.233 77.8956 278.793 76.8986C277.002 72.8008 275.684 69.4212 275.853 69.3536C276.022 69.286 277.602 72.5474 279.393 76.6452C279.824 77.6506 280.238 78.6138 280.627 79.5348C280.894 79.9876 280.993 80.5202 280.906 81.0387C280.857 81.1775 280.776 81.3031 280.671 81.4057C280.565 81.5083 280.437 81.5851 280.297 81.6301C280.087 81.7001 279.868 81.7427 279.647 81.7569C278.827 81.9049 277.993 81.9475 277.163 81.8836Z" fill="#263238"/>
<path d="M272.162 65.0952C271.976 65.4923 270.667 65.1375 269.07 65.1628C267.473 65.1882 266.155 65.5261 265.986 65.1628C265.918 64.977 266.18 64.6136 266.738 64.3179C267.459 63.9082 268.274 63.6928 269.104 63.6927C269.92 63.6801 270.724 63.8842 271.436 64.2841C271.985 64.5545 272.238 64.9094 272.162 65.0952Z" fill="#263238"/>
<path d="M285.755 63.7265C285.451 64.0813 284.192 63.7856 282.688 63.8448C281.184 63.9039 279.942 64.2165 279.63 63.8448C279.495 63.6758 279.672 63.3209 280.213 62.9999C280.956 62.5555 281.805 62.3192 282.671 62.3155C283.533 62.2759 284.389 62.4716 285.147 62.8816C285.654 63.2026 285.84 63.549 285.755 63.7265Z" fill="#263238"/>
<path d="M286.652 60.5834C286.652 60.5834 283.754 54.5676 280.737 53.2834C277.062 51.7287 275.719 55.7421 272.288 54.9732C268.858 54.2043 265.309 52.6919 261.947 55.5055C258.271 58.5894 260.164 60.5243 260.138 64.8925C260.062 82.5934 257.088 87.7473 255.753 79.4756C255.61 78.5716 253.041 77.9717 252.475 74.1442C251.749 69.1762 251.25 63.1604 252.188 59.5273C252.982 56.494 254.579 54.348 257.519 51.9231C262.158 48.0956 268.773 47.6985 273.294 47.9182C277.814 48.1379 286.677 52.8694 286.652 60.5834Z" fill="#263238"/>
<path d="M256.32 79.163C256.29 78.8031 256.187 78.453 256.018 78.1339C255.848 77.8149 255.616 77.5335 255.335 77.3068C255.054 77.0801 254.729 76.9128 254.382 76.8151C254.034 76.7173 253.67 76.6911 253.312 76.7381C251.487 77 249.51 78.1407 249.814 81.9174C250.363 88.6176 256.97 86.6827 256.97 86.4968C256.97 86.311 256.573 81.9597 256.32 79.163Z" fill="#AE7461"/>
<path d="M255.339 84.0889C255.339 84.0889 255.229 84.1818 255.043 84.2916C254.782 84.4226 254.481 84.4527 254.198 84.3761C253.463 84.1733 252.779 83.1003 252.644 81.9005C252.582 81.3298 252.648 80.7525 252.838 80.2107C252.884 79.996 252.98 79.7955 253.12 79.6263C253.26 79.4571 253.439 79.3243 253.641 79.2391C253.772 79.194 253.915 79.1955 254.046 79.2431C254.177 79.2908 254.287 79.3818 254.359 79.501C254.46 79.6869 254.427 79.8221 254.469 79.8305C254.511 79.8389 254.604 79.7038 254.528 79.4334C254.469 79.2734 254.363 79.1349 254.224 79.0363C254.128 78.9727 254.02 78.9294 253.906 78.9091C253.793 78.8887 253.677 78.8918 253.565 78.918C253.294 78.9949 253.048 79.1403 252.849 79.34C252.651 79.5398 252.507 79.7873 252.433 80.0586C252.195 80.6623 252.108 81.3148 252.179 81.9597C252.331 83.3031 253.125 84.4944 254.122 84.7141C254.306 84.7522 254.496 84.7477 254.678 84.7008C254.859 84.654 255.028 84.566 255.17 84.4437C255.339 84.2578 255.339 84.1058 255.339 84.0889Z" fill="#6F4439"/>
<path d="M255.804 66.1598C256.663 66.7862 257.665 67.1871 258.719 67.3258C259.249 67.3783 259.78 67.2356 260.213 66.9245C260.645 66.6134 260.949 66.1553 261.068 65.636C261.127 65.1628 260.983 64.6305 261.271 64.2503C261.558 63.8701 262.302 63.9039 262.868 63.9377C264.828 64.0476 266.999 61.7747 267.396 59.8568C267.672 60.205 268.069 60.436 268.508 60.5034C268.947 60.5708 269.395 60.4696 269.762 60.2201C270.361 59.8095 270.885 59.2977 271.308 58.7077C271.552 58.33 271.884 58.0173 272.276 57.7965C272.667 57.5757 273.106 57.4535 273.556 57.4404C274.035 57.5786 274.528 57.6608 275.026 57.6854C275.871 57.5671 276.285 56.511 276.378 55.6322C276.471 54.7535 276.521 53.7227 277.223 53.2158C277.924 52.7088 278.803 52.9454 279.622 53.0299C280.442 53.1144 281.473 52.8694 281.642 52.0583C281.667 51.844 281.648 51.6268 281.585 51.4204C281.523 51.2139 281.418 51.0226 281.278 50.8585C280.692 50.0768 279.86 49.515 278.916 49.2636C277.972 49.0123 276.971 49.086 276.074 49.4728C275.673 48.3832 274.962 47.4355 274.027 46.7476C273.092 46.0598 271.975 45.6623 270.816 45.6046C269.656 45.547 268.506 45.8317 267.507 46.4234C266.508 47.0151 265.706 47.8876 265.2 48.9321C264.455 48.3225 263.574 47.9014 262.631 47.7045C261.689 47.5076 260.713 47.5407 259.786 47.801C258.86 48.0613 258.009 48.5412 257.307 49.1999C256.605 49.8586 256.072 50.6767 255.753 51.5851C254.921 51.4118 254.056 51.4868 253.265 51.8007C252.475 52.1147 251.794 52.6537 251.308 53.351C250.821 54.0483 250.549 54.8732 250.527 55.7233C250.505 56.5734 250.733 57.4114 251.183 58.1332C250.575 58.4723 250.064 58.9605 249.697 59.5518C249.331 60.1431 249.121 60.8179 249.087 61.5128C249.087 62.8985 250.549 64.2165 251.875 63.7856C251.733 64.0686 251.648 64.3767 251.626 64.6925C251.603 65.0082 251.642 65.3254 251.742 65.6259C251.841 65.9264 251.999 66.2043 252.206 66.4438C252.413 66.6833 252.665 66.8796 252.948 67.0217C253.231 67.1637 253.539 67.2486 253.855 67.2715C254.171 67.2945 254.488 67.255 254.789 67.1553C255.089 67.0557 255.367 66.8978 255.607 66.6908C255.846 66.4837 256.042 66.2315 256.184 65.9486" fill="#263238"/>
<path d="M276.673 51.4668C276.673 51.4668 276.673 51.5091 276.673 51.5936C276.673 51.6781 276.673 51.7963 276.673 51.9569C276.602 52.4129 276.459 52.8549 276.251 53.2665C275.917 53.9313 275.434 54.5098 274.84 54.9563C274.062 55.5536 273.108 55.8774 272.127 55.8773L272.237 55.6914C272.468 56.2925 272.453 56.9602 272.195 57.5502C271.92 58.1597 271.561 58.7284 271.13 59.24C270.922 59.5466 270.681 59.8298 270.412 60.0849C270.109 60.3185 269.751 60.4724 269.373 60.5327C268.98 60.6094 268.575 60.5886 268.192 60.4722C267.809 60.3559 267.46 60.1475 267.176 59.8653L267.421 59.7808C267.363 60.4762 267.159 61.1517 266.825 61.7642C266.49 62.3767 266.031 62.9126 265.478 63.3378C264.864 63.8459 264.102 64.1423 263.307 64.1827C262.562 64.1852 261.822 64.0624 261.118 63.8194L261.287 63.7265C260.966 64.5428 260.446 65.266 259.775 65.8303C259.47 66.1188 259.105 66.3359 258.706 66.466C258.307 66.596 257.884 66.6358 257.468 66.5823C256.763 66.4648 256.106 66.1453 255.578 65.6624C255.05 65.1796 254.674 64.5541 254.494 63.8617L254.646 63.9293C253.961 64.3395 253.154 64.4979 252.365 64.3771C251.773 64.3005 251.208 64.0832 250.717 63.7434C250.41 63.5286 250.141 63.2628 249.923 62.9576C249.846 62.8543 249.783 62.7405 249.737 62.6197C250.022 63.023 250.377 63.3721 250.785 63.6505C251.265 63.9638 251.812 64.1579 252.382 64.2165C253.132 64.3171 253.894 64.1527 254.536 63.7518L254.663 63.6758V63.8194C254.839 64.4691 255.199 65.054 255.7 65.5037C256.2 65.9535 256.82 66.2488 257.485 66.3542C257.865 66.4019 258.251 66.3629 258.614 66.24C258.977 66.117 259.308 65.9134 259.581 65.6444C260.206 65.0909 260.685 64.3914 260.975 63.6082L261.017 63.4815H261.152C261.825 63.718 262.534 63.838 263.247 63.8363C263.982 63.8019 264.685 63.529 265.25 63.059C265.778 62.657 266.216 62.1483 266.535 61.5661C266.853 60.9838 267.046 60.341 267.1 59.6794V59.3667L267.328 59.5949C267.578 59.8437 267.885 60.0277 268.222 60.1308C268.56 60.2339 268.917 60.2529 269.263 60.1863C269.6 60.1349 269.919 60.0015 270.193 59.7977C270.441 59.568 270.665 59.3131 270.86 59.0372C271.287 58.5477 271.64 57.9983 271.908 57.4066C272.031 57.1433 272.099 56.858 272.109 56.5677C272.119 56.2773 272.071 55.9879 271.967 55.7167L271.908 55.5562H272.077C273.013 55.566 273.927 55.2693 274.679 54.7113C275.271 54.3078 275.765 53.7765 276.124 53.1567C276.403 52.6293 276.589 52.0576 276.673 51.4668Z" fill="#455A64"/>
<path d="M277.095 87.0545C277.044 86.801 275.405 87.2319 273.884 86.142C272.363 85.0521 272.076 83.2608 271.848 83.3115C271.62 83.3622 271.628 83.7762 271.806 84.5198C272.046 85.4771 272.614 86.3201 273.411 86.9024C274.178 87.461 275.132 87.7002 276.072 87.5699C276.774 87.4516 277.128 87.1643 277.095 87.0545Z" fill="#263238"/>
<path d="M316.916 149.088C316.764 148.556 308.028 124.78 305.248 119.575C301.91 113.348 294.898 110.594 290.546 110.281C286.195 109.968 239.64 113.728 239.64 113.728C239.64 113.728 225.733 116.838 223.959 128.802C221.914 142.574 220.131 174.097 220.131 174.097L241.322 163.232L244.068 156.32L287.919 166.104L298.624 150.321L316.916 149.088Z" fill="#E0E0E0"/>
<path d="M236.565 115.122L254.747 107.104L256.783 99.2635L278.016 109.301L282.46 104.384L284.328 109.926L288.975 111.447L299.849 130.567V171.309L302.045 206.457L299.654 212L280.179 214.873C278.05 215.185 275.887 215.185 273.758 214.873L234.216 208.426L233.202 196.792L237.426 164.778L236.565 115.122Z" fill="#E0E0E0"/>
<path d="M256.785 99.2635C256.785 99.2635 259.159 99.9478 265.234 103.201C271.207 106.386 277.992 109.301 277.992 109.301L277.477 118.882L254.884 107.544" fill="#E0E0E0"/>
<path d="M282.461 104.384L278.017 109.301L280.391 119.575L284.353 110.29" fill="#E0E0E0"/>
<g opacity="0.3">
<path d="M278.101 110.357C278.295 110.509 279.529 122.186 279.529 122.186L256.885 108.498L277.501 118.849L278.101 110.357Z" fill="black"/>
</g>
<path d="M277.949 154.064C277.603 145.108 279.014 122.262 279.014 122.262L281.971 121.78C285.736 138.046 288.278 154.571 289.575 171.216C290.42 182.2 290.42 195 290.42 195L284.506 207.725L277.949 195.051C277.949 195.051 278.363 164.955 277.949 154.064Z" fill="#455A64"/>
<path d="M235.214 116.525C235.172 116.567 235.822 117.074 236.743 118.02C239.136 120.498 240.797 123.589 241.543 126.951C241.821 128.235 241.889 129.055 241.94 129.047C241.971 128.856 241.971 128.662 241.94 128.472C241.908 127.947 241.843 127.425 241.745 126.909C241.444 125.194 240.874 123.537 240.055 122C239.23 120.465 238.169 119.068 236.912 117.86C236.537 117.494 236.136 117.155 235.713 116.846C235.559 116.72 235.392 116.613 235.214 116.525Z" fill="#263238"/>
<path d="M277.949 113.88L279.968 113.095L281.886 116.381L282.232 121.78L279.529 122.22L277.501 118.882L277.949 113.88Z" fill="#455A64"/>
<path d="M299.817 129.951C299.733 129.951 299.656 141.644 299.656 156.058C299.656 170.473 299.733 182.175 299.817 182.175C299.902 182.175 299.978 170.489 299.978 156.058C299.978 141.627 299.902 129.951 299.817 129.951Z" fill="#263238"/>
<path d="M277.805 109.217C278.155 109.886 278.539 110.537 278.954 111.168C279.879 112.73 280.725 114.337 281.489 115.984C281.565 116.145 281.641 116.297 281.708 116.449L281.852 116.753L281.996 116.449C282.733 114.897 283.363 113.297 283.88 111.658C284.074 111.042 284.218 110.535 284.302 110.18C284.371 110.002 284.405 109.813 284.404 109.622C284.361 109.622 284.125 110.374 283.677 111.591C283.101 113.197 282.444 114.774 281.708 116.314H281.996L281.776 115.849C280.999 114.191 280.11 112.587 279.115 111.05C278.726 110.467 278.396 110.002 278.16 109.681C277.923 109.36 277.822 109.2 277.805 109.217Z" fill="#263238"/>
<path d="M254.747 107.104C254.844 107.178 254.949 107.24 255.06 107.29L255.972 107.772L259.352 109.521C262.199 110.999 266.111 113.112 270.42 115.435C273.048 116.838 275.541 118.139 277.712 119.22L277.915 119.322V119.06C277.915 116.246 277.965 113.88 277.982 112.165C277.982 111.32 277.982 110.712 277.982 110.222C277.999 109.991 277.999 109.76 277.982 109.529C277.943 109.758 277.923 109.99 277.923 110.222C277.923 110.704 277.881 111.354 277.847 112.157C277.805 113.847 277.746 116.246 277.67 119.051L277.873 118.933C275.718 117.826 273.234 116.517 270.598 115.114C266.28 112.807 262.36 110.729 259.487 109.293C258.051 108.583 256.876 108.017 256.065 107.603L255.119 107.18C255 107.137 254.874 107.111 254.747 107.104Z" fill="#263238"/>
<path d="M297.086 114.497C297.036 114.497 297.391 115.122 297.855 116.187C298.444 117.522 298.878 118.919 299.148 120.352C299.407 121.79 299.498 123.253 299.418 124.712C299.359 125.836 299.241 126.52 299.292 126.529C299.362 126.379 299.411 126.22 299.435 126.056C299.527 125.617 299.595 125.175 299.638 124.729C299.941 121.758 299.39 118.763 298.05 116.094C297.855 115.69 297.632 115.3 297.382 114.928C297.205 114.624 297.103 114.48 297.086 114.497Z" fill="#263238"/>
<path d="M280.027 122.566C280.027 122.642 280.585 122.397 281.168 122.025C281.751 121.654 282.199 121.299 282.148 121.223C281.729 121.312 281.335 121.497 280.999 121.763C280.416 122.135 279.977 122.49 280.027 122.566Z" fill="#263238"/>
<path d="M279.055 121.248C279.602 120.384 280.06 119.467 280.424 118.511C280.882 117.605 281.253 116.657 281.531 115.68C280.974 116.537 280.512 117.452 280.153 118.409C279.69 119.315 279.322 120.266 279.055 121.248Z" fill="#263238"/>
<path d="M232.839 117.133C232.839 117.133 225.835 122.203 224.956 124.966C224.077 127.729 220.36 173.033 219.701 178.423C219.042 183.814 218.383 193.877 222.548 197.163C226.714 200.45 235.686 202.917 235.686 202.917L243.975 185.808L239.582 176.607L243.975 142.219L232.839 117.133Z" fill="#E0E0E0"/>
<path d="M233.684 202.309C233.833 202.294 233.983 202.294 234.132 202.309C234.564 202.306 234.996 202.278 235.425 202.224C237.032 202.076 238.574 201.518 239.903 200.602C241.887 199.131 243.377 197.092 244.178 194.755C245.26 191.803 245.809 188.682 245.8 185.537L245.843 185.656L239.404 176.742L239.354 176.674V176.59C239.354 176.362 239.413 176.108 239.447 175.863C240.68 166.223 241.804 157.486 242.624 151.124C243.029 147.99 243.359 145.438 243.595 143.63C243.705 142.785 243.789 142.092 243.857 141.585C243.925 141.078 243.95 140.875 243.958 140.875C243.973 140.936 243.973 141 243.958 141.061C243.958 141.18 243.958 141.365 243.958 141.594C243.908 142.1 243.849 142.785 243.773 143.647C243.595 145.421 243.308 147.99 242.928 151.158C242.184 157.503 241.111 166.256 239.878 175.922C239.878 176.167 239.818 176.412 239.785 176.64V176.488L246.197 185.411V185.47V185.529C246.196 188.722 245.623 191.89 244.508 194.882C243.657 197.262 242.101 199.325 240.047 200.796C239.273 201.326 238.416 201.723 237.512 201.971L236.937 202.131L236.396 202.224C236.085 202.287 235.768 202.324 235.45 202.334C235.017 202.371 234.582 202.371 234.149 202.334C233.994 202.342 233.838 202.333 233.684 202.309Z" fill="#263238"/>
<path d="M225.219 179.758C225.759 179.226 226.381 178.784 227.061 178.449C230.263 176.657 233.956 175.937 237.597 176.395C238.352 176.456 239.093 176.632 239.794 176.919C234.741 176.054 229.546 177.064 225.185 179.758H225.219Z" fill="#263238"/>
<path d="M280.197 134.674C280.197 134.674 280.602 136.178 281.236 138.831C282.676 136.764 284.514 135.006 286.643 133.66C286.643 133.66 297.458 122.913 300.914 111.616C303.449 103.412 302.798 94.3207 302.798 94.3207C302.697 93.8898 301.852 90.037 301.167 86.8855C300.897 85.6437 301.117 84.3455 301.782 83.2623C302.446 82.179 303.503 81.3944 304.733 81.0725C310.081 79.6277 324.622 76.8142 328.002 86.5644C332.978 101.139 324.926 116.88 325.019 121.383C325.019 122.228 325.019 122.929 325.019 123.487C329.286 122.499 332.623 121.797 332.623 121.865L360.624 115.334C360.624 115.334 369.876 112.529 373.052 122.017C376.229 131.505 365.448 134.691 365.448 134.691C365.448 134.691 370.518 134.462 371.886 143.089C373.255 151.716 364.003 154.512 364.003 154.512C364.003 154.512 369.673 154.149 371.143 161.795C372.571 169.239 363.319 173.726 362.82 173.962C363.555 173.778 364.3 173.637 365.051 173.54C364.5 173.742 363.935 173.906 363.361 174.03C367.679 174.579 368.304 179.716 368.304 179.716C371.084 190.252 362.973 192.466 362.973 192.466L311.822 204.396C306.726 205.584 301.407 205.391 296.41 203.838C296.9 206.018 297.162 207.218 297.146 207.218L261.431 215.557C261.355 215.557 257.502 199.343 252.821 179.319C248.141 159.294 244.415 142.988 244.491 142.988L280.197 134.674Z" fill="#FFCA2C"/>
<g opacity="0.3">
<path d="M280.197 134.674C280.197 134.674 280.602 136.178 281.236 138.831C282.676 136.764 284.514 135.006 286.643 133.66C286.643 133.66 297.458 122.913 300.914 111.616C303.449 103.412 302.798 94.3207 302.798 94.3207C302.697 93.8898 301.852 90.037 301.167 86.8855C300.897 85.6437 301.117 84.3455 301.782 83.2622C302.446 82.1789 303.503 81.3944 304.733 81.0725C310.081 79.6277 324.622 76.8141 328.002 86.5644C332.978 101.139 324.926 116.88 325.019 121.383C325.019 122.228 325.019 122.929 325.019 123.487C329.286 122.499 332.623 121.797 332.623 121.865L360.624 115.334C360.624 115.334 369.876 112.529 373.052 122.017C376.229 131.505 365.448 134.691 365.448 134.691C365.448 134.691 370.518 134.462 371.886 143.089C373.255 151.716 364.003 154.512 364.003 154.512C364.003 154.512 369.673 154.149 371.143 161.795C372.571 169.239 363.319 173.725 362.82 173.962C363.555 173.778 364.3 173.637 365.051 173.54C364.5 173.742 363.935 173.906 363.361 174.03C367.679 174.579 368.304 179.716 368.304 179.716C371.084 190.252 362.973 192.466 362.973 192.466L311.822 204.396C306.726 205.584 301.407 205.391 296.41 203.838C296.9 206.018 297.162 207.218 297.146 207.218L261.431 215.557C261.355 215.557 257.502 199.343 252.821 179.319C248.141 159.294 244.415 142.988 244.491 142.988L280.197 134.674Z" fill="black"/>
</g>
<path d="M287.1 144.846L286.407 149.493L297.831 198.372C301.175 200.593 304.938 202.106 308.889 202.818C312.84 203.53 316.895 203.425 320.804 202.512L371.938 190.573C371.938 190.573 380.049 188.359 377.269 177.823C377.269 177.823 376.602 172.23 371.777 172.078C371.777 172.078 381.578 167.549 380.117 159.903C378.655 152.256 372.986 152.628 372.986 152.628C372.986 152.628 382.237 149.823 380.86 141.196C379.483 132.57 374.422 132.798 374.422 132.798C374.422 132.798 385.195 129.646 382.026 120.124C378.858 110.602 369.597 113.441 369.597 113.441L333.266 121.89L301.396 129.334C297.729 130.18 294.402 132.114 291.852 134.882C289.301 137.649 287.645 141.122 287.1 144.846Z" fill="#FFCA2C"/>
<path d="M295.599 131.809C295.599 131.809 306.414 121.062 309.87 109.766C312.404 101.562 311.754 92.4788 311.754 92.4788C311.652 92.0395 310.808 88.1867 310.123 85.0351C309.853 83.7934 310.073 82.4952 310.737 81.4119C311.402 80.3286 312.459 79.544 313.689 79.2221C319.062 77.7689 328.753 80.4388 332.091 90.206C337.067 104.772 333.874 115.021 333.958 119.524L334.043 124.028L295.599 131.809Z" fill="#FFCA2C"/>
<path d="M289.182 132.785L253.475 141.127L270.425 213.678L306.132 205.336L289.182 132.785Z" fill="#FFCA2C"/>
<path d="M306.127 205.367C306.203 205.367 302.477 189.094 297.796 169.036C293.115 148.978 289.262 132.773 289.186 132.79C289.11 132.806 292.836 149.063 297.517 169.121C302.198 189.179 306.034 205.384 306.127 205.367Z" fill="#263238"/>
<path d="M270.421 213.69C270.497 213.69 266.763 197.417 262.082 177.359C257.401 157.3 253.548 141.095 253.472 141.112C253.396 141.129 257.122 157.385 261.803 177.443C266.484 197.501 270.337 213.69 270.421 213.69Z" fill="#263238"/>
<path d="M280.458 152.366C280.766 153.687 280.676 155.07 280.199 156.34C279.721 157.61 278.878 158.71 277.775 159.501C276.673 160.291 275.361 160.737 274.005 160.783C272.649 160.828 271.31 160.47 270.158 159.754C269.005 159.039 268.091 157.997 267.53 156.762C266.969 155.527 266.787 154.153 267.007 152.814C267.226 151.475 267.838 150.232 268.765 149.241C269.691 148.25 270.891 147.556 272.211 147.246C273.984 146.833 275.848 147.14 277.394 148.1C278.94 149.06 280.042 150.594 280.458 152.366Z" fill="white"/>
<path d="M341.588 120.006C341.588 119.93 337.659 120.775 332.86 121.899C328.061 123.022 324.174 123.986 324.191 124.062C324.208 124.138 328.12 123.293 332.919 122.177C337.718 121.062 341.605 120.082 341.588 120.006Z" fill="#263238"/>
<path d="M373.779 152.797C373.779 152.721 371.244 153.245 368.185 153.955C366.314 154.335 364.463 154.815 362.643 155.391C362.643 155.467 365.177 154.943 368.236 154.233C370.106 153.848 371.956 153.369 373.779 152.797Z" fill="#263238"/>
<path d="M375.082 132.452C375.082 132.376 371.516 133.144 367.156 134.141C362.797 135.138 359.282 136.042 359.299 136.127C359.316 136.211 362.864 135.434 367.224 134.437C371.584 133.44 375.098 132.578 375.082 132.452Z" fill="#263238"/>
<path d="M374.024 171.647C374.024 171.571 370.458 172.331 366.099 173.337C361.739 174.342 358.224 175.238 358.241 175.314C358.258 175.39 361.807 174.63 366.166 173.624C370.526 172.619 374.041 171.723 374.024 171.647Z" fill="#263238"/>
<g opacity="0.3">
<path d="M313.992 82.813C313.485 83.3766 313.139 84.0662 312.99 84.8095C312.842 85.5528 312.896 86.3224 313.147 87.0376C313.682 88.4611 314.335 89.8375 315.099 91.1523C316.565 94.2076 316.987 97.6602 316.299 100.979C316.087 101.984 315.808 103.142 316.451 103.944C317.363 105.076 319.197 104.451 320.354 103.564C322.508 101.835 324.128 99.5301 325.025 96.9175C325.922 94.3049 326.061 91.4914 325.424 88.8035C324.921 86.5148 323.651 84.4667 321.824 82.9989C319.957 81.6133 317.093 80.3628 313.924 82.7877" fill="white"/>
</g>
<g opacity="0.3">
<path d="M372.924 114.734C371.651 114.588 370.362 114.724 369.147 115.131L347.568 120.606C345.219 121.206 340.809 121.738 340.758 124.138C340.285 125.447 341.282 126.934 342.566 127.467C343.903 127.898 345.333 127.951 346.698 127.619C349.579 127.162 352.427 126.487 355.274 125.811C360.986 124.442 366.714 123.039 372.172 120.741C372.992 120.444 373.758 120.013 374.437 119.465C374.775 119.188 375.047 118.838 375.233 118.442C375.418 118.046 375.513 117.613 375.51 117.176C375.393 116.547 375.08 115.972 374.615 115.533C374.15 115.094 373.558 114.814 372.924 114.734Z" fill="white"/>
</g>
<path d="M281.244 136.803C281.244 136.727 276.174 137.834 270.066 139.27C263.957 140.706 258.938 141.931 258.955 142.008C258.972 142.084 263.974 140.985 270.133 139.549C276.293 138.112 281.261 136.921 281.244 136.803Z" fill="white"/>
<path d="M377.581 145.058C377.648 144.925 377.694 144.782 377.716 144.635C377.821 144.243 377.883 143.841 377.902 143.435C377.944 142.835 377.924 142.232 377.843 141.636C377.729 140.905 377.536 140.188 377.269 139.498C376.988 138.812 376.631 138.16 376.204 137.555C375.854 137.063 375.451 136.609 375.004 136.203C374.708 135.927 374.385 135.681 374.041 135.468C373.925 135.376 373.793 135.304 373.652 135.257C373.652 135.307 374.151 135.645 374.869 136.355C375.283 136.769 375.656 137.222 375.984 137.707C376.386 138.302 376.726 138.936 376.998 139.6C377.258 140.269 377.453 140.963 377.581 141.67C377.67 142.251 377.71 142.839 377.699 143.427C377.674 144.407 377.522 145.041 377.581 145.058Z" fill="white"/>
<path d="M378.569 125.447C378.864 125.181 379.095 124.852 379.245 124.484C379.658 123.619 379.839 122.661 379.769 121.704C379.718 120.749 379.427 119.822 378.924 119.009C378.725 118.672 378.454 118.383 378.13 118.164C378.087 118.164 378.4 118.519 378.746 119.136C379.197 119.934 379.46 120.824 379.515 121.738C379.576 122.651 379.431 123.566 379.093 124.416C378.797 125.05 378.527 125.413 378.569 125.447Z" fill="white"/>
<path d="M375.873 166.18C376.261 165.944 376.589 165.62 376.828 165.234C377.475 164.326 377.791 163.223 377.723 162.11C377.656 160.997 377.209 159.94 376.456 159.117C376.174 158.755 375.809 158.465 375.392 158.272C375.392 158.272 375.797 158.602 376.304 159.227C376.964 160.051 377.359 161.055 377.436 162.108C377.49 163.164 377.219 164.211 376.659 165.107C376.237 165.809 375.831 166.147 375.873 166.18Z" fill="white"/>
<path d="M372.629 185.106C372.91 184.815 373.128 184.47 373.272 184.093C373.67 183.192 373.855 182.213 373.812 181.229C373.77 180.246 373.501 179.286 373.027 178.423C372.852 178.059 372.604 177.734 372.3 177.468C372.258 177.468 372.536 177.857 372.849 178.516C373.25 179.37 373.479 180.294 373.525 181.237C373.564 182.181 373.414 183.123 373.086 184.008C372.832 184.692 372.587 185.081 372.629 185.106Z" fill="white"/>
<path d="M332.489 107.341C332.584 107.066 332.655 106.783 332.7 106.496C332.76 106.234 332.827 105.904 332.886 105.516C332.945 105.127 333.021 104.671 333.055 104.198C333.18 103.053 333.222 101.901 333.182 100.751C333.098 97.9199 332.559 95.1212 331.585 92.4619C331.189 91.3798 330.717 90.3267 330.174 89.3104C329.954 88.8626 329.718 88.4655 329.524 88.1529C329.329 87.8403 329.143 87.5361 328.983 87.308C328.837 87.0633 328.667 86.834 328.476 86.6236C328.593 86.8825 328.731 87.1312 328.89 87.3671C329.033 87.6037 329.202 87.8909 329.38 88.212C329.557 88.5331 329.794 88.9386 329.997 89.3864C330.504 90.4095 330.95 91.4619 331.332 92.538C331.79 93.8579 332.16 95.2072 332.438 96.5766C332.689 97.9532 332.85 99.3446 332.92 100.742C332.967 101.869 332.944 102.998 332.852 104.122C332.852 104.612 332.768 105.051 332.726 105.431C332.683 105.812 332.633 106.149 332.591 106.42C332.522 106.722 332.488 107.031 332.489 107.341Z" fill="white"/>
<path d="M250.954 192.947C250.954 192.947 253.759 190.767 255.846 190.683C257.933 190.598 260.645 191.401 261.186 191.131C261.727 190.86 263.003 189.669 263.814 190.674C264.625 191.68 265.63 195.296 261.279 196.293H258.288C258.288 196.293 258.651 199.284 259.378 200.458C260.105 201.633 270.252 214.408 270.252 214.408C270.252 214.408 271.519 215.684 270.886 216.943C270.252 218.202 267.506 217.483 267.506 217.483C267.506 217.483 265.605 219.173 263.434 218.388C262.354 218.024 261.32 217.539 260.35 216.943C259.647 217.479 258.788 217.77 257.904 217.77C257.02 217.77 256.16 217.479 255.458 216.943C252.923 215.042 244.474 204.438 244.474 204.438L247.499 192.609L250.954 192.947Z" fill="#AE7461"/>
<path d="M242.15 185.934L250.954 192.947L244.491 204.446L231.597 199.766C231.597 199.766 231.969 186.18 242.15 185.934Z" fill="#AE7461"/>
<path d="M379.475 170.27C379.475 170.27 379.196 167.118 377.43 167.735C375.664 168.352 374.895 172.095 374.895 172.095L379.475 170.27Z" fill="#AE7461"/>
<path d="M373.162 173.379C373.162 173.379 376.229 169.949 380.488 170.228C384.746 170.506 382.068 174.123 382.068 174.123C382.068 174.123 385.228 176.066 382.913 178.854L382.541 179.598C382.541 179.598 385.228 180.612 382.448 183.484C382.729 183.998 382.845 184.587 382.778 185.17C382.712 185.752 382.466 186.3 382.076 186.737C380.682 188.123 377.209 186.272 377.209 186.272C377.209 186.272 374.007 187.016 373.728 185.715C373.617 185.279 373.627 184.82 373.758 184.39C373.89 183.959 374.136 183.573 374.472 183.273C374.751 183.087 376.424 182.428 376.424 182.428C376.424 182.428 372.714 182.893 372.622 181.963C372.529 181.034 372.157 180.012 374.937 179.091L376.424 178.694C376.424 178.694 372.571 178.812 372.545 177.849C372.52 176.885 372.343 176.548 373.728 175.905C374.604 175.499 375.451 175.033 376.263 174.511C376.263 174.511 372.613 175.331 373.162 173.379Z" fill="#AE7461"/>
<path d="M372.486 177.004C373.876 175.974 375.426 175.18 377.074 174.655C378.753 174.243 380.488 174.106 382.211 174.249C381.731 174.05 381.218 173.941 380.699 173.928C378.168 173.71 375.645 174.422 373.602 175.931C373.163 176.211 372.783 176.576 372.486 177.004Z" fill="#6F4439"/>
<path d="M372.908 182.301C372.908 182.301 372.824 182.183 372.731 181.972C372.623 181.66 372.623 181.321 372.731 181.009C372.873 180.536 373.171 180.125 373.576 179.843C374.09 179.504 374.663 179.266 375.266 179.141C376.875 178.849 378.5 178.652 380.132 178.55C379.66 178.419 379.169 178.364 378.679 178.389C377.502 178.38 376.328 178.507 375.181 178.77C374.527 178.907 373.909 179.177 373.364 179.564C372.91 179.9 372.592 180.389 372.469 180.941C372.416 181.123 372.401 181.314 372.422 181.503C372.444 181.691 372.503 181.874 372.596 182.039C372.781 182.268 372.9 182.318 372.908 182.301Z" fill="#6F4439"/>
<path d="M374.471 186.382C374.471 186.382 374.336 186.298 374.15 186.12C373.993 185.968 373.869 185.784 373.787 185.581C373.705 185.377 373.667 185.159 373.675 184.94C373.683 184.721 373.737 184.506 373.833 184.309C373.93 184.112 374.066 183.937 374.235 183.797C374.792 183.421 375.405 183.136 376.051 182.952C377.273 182.699 378.527 182.633 379.769 182.758C380.296 182.826 380.832 182.798 381.349 182.673C380.833 182.577 380.31 182.514 379.786 182.487C378.509 182.28 377.205 182.315 375.941 182.589C375.247 182.787 374.592 183.104 374.007 183.526C373.742 183.746 373.55 184.04 373.457 184.371C373.4 184.65 373.4 184.938 373.457 185.216C373.49 185.42 373.563 185.615 373.672 185.791C373.781 185.966 373.923 186.119 374.091 186.239C374.302 186.399 374.471 186.399 374.471 186.382Z" fill="#6F4439"/>
<path d="M373.113 173.531C373.113 173.531 373.189 173.413 373.383 173.235C373.652 172.992 373.934 172.764 374.228 172.551C375.186 171.835 376.246 171.266 377.371 170.861C378.486 170.438 379.68 170.265 380.869 170.354C381.352 170.464 381.829 170.599 382.297 170.76C381.918 170.401 381.437 170.168 380.92 170.092C379.686 169.911 378.425 170.05 377.261 170.498C374.473 171.495 372.885 173.404 373.113 173.531Z" fill="#6F4439"/>
</svg>
