<svg width="15" height="15" viewBox="0 0 15 15" fill="none" xmlns="http://www.w3.org/2000/svg">
<g clip-path="url(#clip0_720_1305)">
<path d="M7.13983 0.255995L5.22089 4.96117L0.351503 5.41813C0.275373 5.42523 0.202902 5.4556 0.143069 5.50546C0.0832367 5.55533 0.0386696 5.62251 0.0148907 5.69867C-0.0088892 5.77484 -0.0108376 5.85664 0.00928879 5.93396C0.0294142 6.01127 0.0707283 6.08069 0.128114 6.13363L3.81342 9.5038L2.72455 14.4957C2.70694 14.5754 2.71247 14.6587 2.74044 14.7351C2.7684 14.8114 2.81752 14.8772 2.88147 14.924C2.94542 14.9708 3.02127 14.9965 3.09925 14.9977C3.17723 14.999 3.25378 14.9757 3.31903 14.9309L7.49994 12.3121L11.6931 14.9411C11.7587 14.9822 11.8345 15.0022 11.9109 14.9986C11.9874 14.995 12.0611 14.9679 12.123 14.9207C12.1848 14.8736 12.2322 14.8084 12.259 14.7333C12.2859 14.6582 12.2911 14.5765 12.2741 14.4983L11.1852 9.50636L14.8669 6.13363C14.9251 6.08015 14.9668 6.00977 14.9868 5.93139C15.0067 5.85302 15.0041 5.7702 14.9791 5.69342C14.9541 5.61664 14.908 5.54937 14.8465 5.50013C14.785 5.45089 14.7109 5.4219 14.6337 5.41684L9.78266 4.96117L7.86005 0.255995C7.83025 0.181649 7.78018 0.118183 7.71611 0.073553C7.65205 0.0289229 7.57685 0.00511551 7.49994 0.00511551C7.42303 0.00511551 7.34783 0.0289229 7.28377 0.073553C7.21971 0.118183 7.16964 0.181649 7.13983 0.255995Z" fill="#222C2D"/>
</g>
<defs>
<clipPath id="clip0_720_1305">
<rect width="15" height="15" fill="white" transform="matrix(-1 0 0 1 15 0)"/>
</clipPath>
</defs>
</svg>
