<svg width="21" height="23" viewBox="0 0 21 23" fill="none" xmlns="http://www.w3.org/2000/svg">
<g clip-path="url(#clip0_720_1258)">
<path d="M6.64099 15.4342C6.11508 14.8184 5.5709 14.1783 5.13995 13.2368C4.71812 12.3084 4.48438 11.3501 4.49169 10.3543C4.50082 9.35853 4.74734 8.33281 5.28421 7.2734C5.28786 7.26591 5.29151 7.2603 5.29517 7.25281C5.99821 6.03243 6.98247 5.21635 8.07812 4.75965C8.99664 4.37407 9.99551 4.24305 10.9743 4.33476C11.9494 4.42648 12.9045 4.74093 13.739 5.2463C14.7999 5.89018 15.6728 6.84477 16.1531 8.05018C16.4124 8.70341 16.5877 9.43152 16.6096 10.2289C16.6315 11.0244 16.4982 11.8816 16.1403 12.7876C15.5925 14.1783 14.3124 15.6682 13.4742 17.0364C13.4286 17.0271 13.3811 17.0252 13.3336 17.0327L12.2033 17.2049L13.9253 11.0656C13.9746 10.8915 13.8741 10.7099 13.7043 10.6594C13.5345 10.6107 13.3573 10.7118 13.308 10.8859L11.5057 17.3134L9.79647 17.5736L7.99047 11.6888C8.12012 11.7151 8.25708 11.657 8.3283 11.5335L9.60838 9.3005L10.2603 10.8335C10.3315 11 10.5196 11.0749 10.6803 11.0038C10.7606 10.9682 10.8191 10.9008 10.8501 10.8241L11.4272 9.33045L12.1028 11.1573C12.1649 11.3276 12.3493 11.4118 12.5155 11.3482C12.6817 11.2846 12.7639 11.0955 12.7018 10.9252L11.7394 8.32345C11.712 8.23174 11.6445 8.15312 11.5513 8.11569C11.387 8.0483 11.2007 8.13253 11.135 8.30099L10.5379 9.84892L9.94256 8.44886C9.91699 8.38709 9.87134 8.33281 9.81108 8.29725C9.65951 8.20553 9.4623 8.25794 9.37464 8.41329L7.81882 11.1273L7.70743 10.7661C7.65447 10.5939 7.47551 10.4965 7.30751 10.5508C7.13951 10.6051 7.04456 10.7885 7.09751 10.9607L9.15551 17.6709L7.91743 17.86C7.61795 16.9522 7.16143 16.0463 6.64099 15.4342ZM2.60351 3.46066C2.45925 3.32215 2.38256 3.13685 2.37525 2.94967C2.36795 2.7625 2.43186 2.57158 2.56517 2.42371C2.7003 2.27584 2.88108 2.19723 3.06369 2.18974C3.2463 2.18226 3.43256 2.24777 3.57682 2.3844L4.7236 3.47938C4.86786 3.61788 4.94456 3.80319 4.95186 3.99036C4.95917 4.17941 4.89525 4.36845 4.76195 4.51632C4.62682 4.66419 4.44603 4.7428 4.26343 4.75029C4.07899 4.75778 3.89456 4.69227 3.7503 4.55563L2.60351 3.46066ZM0.728122 11.541C0.534557 11.5447 0.357426 11.468 0.225948 11.3426C0.0926436 11.2134 0.0068175 11.0337 -0.000486846 10.8297C-0.00779119 10.6276 0.0670784 10.4404 0.193078 10.3038C0.319078 10.1671 0.494383 10.0791 0.693426 10.0735L2.25838 10.0193C2.4556 10.0118 2.63821 10.0885 2.77151 10.2177C2.90482 10.3468 2.99064 10.5265 2.99612 10.7305V10.7417H2.99795L2.99612 10.7679C2.99247 10.957 2.91943 11.1273 2.80256 11.2565C2.67656 11.3931 2.50125 11.4792 2.30221 11.4867H2.29125V11.4886H2.27482L0.728122 11.541ZM20.2161 9.26681L20.2399 9.26494C20.4261 9.25371 20.5996 9.31548 20.7347 9.42778C20.8772 9.5457 20.9739 9.72164 20.9959 9.92192V9.92941C20.9977 9.92941 20.9977 9.95 20.9977 9.95374C21.0086 10.1447 20.9484 10.3225 20.8388 10.461C20.7238 10.607 20.5521 10.7062 20.3567 10.7286L18.7991 10.8971C18.6019 10.9177 18.4156 10.854 18.275 10.7361C18.1326 10.6182 18.0339 10.4423 18.0139 10.242C17.9938 10.0417 18.0559 9.84892 18.1709 9.7048C18.2859 9.5588 18.4576 9.45773 18.653 9.43714C19.1734 9.37911 19.6957 9.31735 20.2161 9.26681ZM17.13 2.87667C17.2414 2.70822 17.4058 2.6034 17.5847 2.56596C17.7637 2.5304 17.9554 2.56409 18.1216 2.6764L18.1234 2.67827C18.2878 2.79057 18.3919 2.9609 18.4266 3.14433C18.4613 3.32776 18.4284 3.5243 18.3188 3.69463L17.4478 5.02918C17.3382 5.19764 17.172 5.30433 16.9913 5.34176C16.8123 5.37733 16.6206 5.34363 16.4544 5.23133C16.29 5.11902 16.1859 4.94682 16.1494 4.76339C16.1147 4.57996 16.1476 4.38343 16.2572 4.2131L17.13 2.87667ZM10.3662 0.71668C10.3717 0.51266 10.4557 0.331101 10.589 0.201951C10.7186 0.0746721 10.8976 -0.00206947 11.0912 -0.000197729V-0.00206947C11.1076 -0.00206947 11.124 -0.000197729 11.1405 0.00167402C11.3213 0.016648 11.4838 0.100876 11.6006 0.226283C11.7248 0.359177 11.7997 0.540736 11.7979 0.741013H11.7997C11.7997 0.754115 11.7997 0.767218 11.7979 0.778448L11.7595 2.3451H11.7613C11.7613 2.36194 11.7595 2.37879 11.7577 2.39564C11.7431 2.58281 11.6609 2.74752 11.5386 2.86732C11.4071 2.99459 11.2299 3.07134 11.0364 3.06946V3.07134C11.0199 3.07134 11.0035 3.06946 10.9871 3.06759C10.8045 3.05262 10.6438 2.96839 10.5269 2.84298C10.4027 2.70822 10.3279 2.52666 10.3297 2.32825H10.3279C10.3279 2.31515 10.3279 2.30205 10.3297 2.29082L10.3662 0.71668ZM13.0414 17.9386L12.9264 18.4908L12.8972 18.8838L8.27169 19.5895C8.25525 19.3069 8.21143 19.0018 8.14203 18.6854L13.0414 17.9386ZM12.888 19.7448L12.8917 19.9825L12.8972 20.0649C12.9099 20.2203 12.9118 20.3775 12.9026 20.5328L12.8333 20.8754L8.53647 21.5305L8.4616 21.3545L8.2936 20.6508L8.28995 20.4467L12.888 19.7448ZM12.5502 21.7776C12.3274 22.1687 12.0206 22.4738 11.67 22.6816C11.3578 22.8688 11.009 22.9755 10.6602 22.9979C10.3059 23.0204 9.94803 22.9511 9.62117 22.7902C9.39838 22.6779 9.19021 22.5225 9.00577 22.3204L12.5502 21.7776Z" fill="#222C2D"/>
</g>
<defs>
<clipPath id="clip0_720_1258">
<rect width="21" height="23" fill="white"/>
</clipPath>
</defs>
</svg>
