<svg width="15" height="14" viewBox="0 0 15 14" fill="none" xmlns="http://www.w3.org/2000/svg">
<path d="M11.1856 14C5.08454 13.7325 0.138964 8.91718 0.000303238 2.92035C-0.0227487 1.33762 1.2714 0.0222134 2.88907 0C3.05092 0 3.23566 -1.54232e-07 3.37447 0.0222368C3.65174 0.0668667 3.90596 0.133734 4.16017 0.245231H4.18322V0.267468L5.03826 4.88213L5.01521 4.90437C4.59931 5.30556 4.09088 5.55079 3.53616 5.66229C4.50678 8.06994 6.58678 9.96485 9.12881 10.7228C9.19813 10.1655 9.45235 9.65279 9.84519 9.22918V9.20694L14.6983 9.85336V9.8756C14.8139 10.0986 14.8832 10.3214 14.9295 10.5666C14.9758 10.7228 14.9758 10.901 14.9988 11.0793C15.0449 12.6622 13.7508 13.9552 12.1331 13.9999H12.0175H11.1856L11.1856 14Z" fill="black"/>
</svg>
