<svg width="29" height="25" viewBox="0 0 29 25" fill="none" xmlns="http://www.w3.org/2000/svg">
<g clip-path="url(#clip0_675_2121)">
<path fill-rule="evenodd" clip-rule="evenodd" d="M26.9208 12.7687C26.1371 11.9823 25.1779 11.3928 24.1218 11.0483V2.12104C24.1218 1.55851 23.898 1.01901 23.4997 0.621238C23.1014 0.223466 22.5611 0 21.9978 0L2.12402 0C1.5607 0 1.02044 0.223466 0.622112 0.621238C0.22378 1.01901 0 1.55851 0 2.12104L0 17.7861C0.00237043 18.3472 0.227249 18.8844 0.625407 19.2803L0.691488 19.3415C1.08166 19.7016 1.59278 19.9025 2.12402 19.9048H4.72005V24.1257C4.72005 24.3571 4.81197 24.5792 4.97567 24.7431C5.13936 24.907 5.36146 24.9994 5.59326 25C5.71716 24.9994 5.83954 24.9728 5.95254 24.9221C6.06554 24.8713 6.16664 24.7975 6.24935 24.7054L11.2526 19.9048H15.1301C15.4768 20.9925 16.0779 21.9821 16.8836 22.7918C18.2146 24.1209 20.0199 24.8676 21.9022 24.8676C23.7846 24.8676 25.5898 24.1209 26.9208 22.7918C28.2518 21.4626 28.9996 19.6599 28.9996 17.7802C28.9996 15.9005 28.2518 14.0978 26.9208 12.7687ZM22.373 10.7065C21.3718 10.6411 20.368 10.7884 19.428 11.1387C18.4879 11.489 17.6329 12.0343 16.9192 12.7387C16.2056 13.4431 15.6497 14.2905 15.288 15.2251C14.9263 16.1597 14.7671 17.1603 14.821 18.1608H10.9057C10.6814 18.1585 10.4649 18.243 10.3015 18.3965L6.45939 22.0824V19.0187C6.45877 18.7872 6.36624 18.5654 6.20211 18.4019C6.03798 18.2385 5.81563 18.1467 5.58382 18.1467H2.12402C2.03811 18.1453 1.95508 18.1155 1.88802 18.0618L1.86442 18.0383C1.79428 17.9691 1.7544 17.8751 1.7535 17.7767V2.12104C1.75639 2.02338 1.79622 1.93044 1.86497 1.86092C1.93371 1.79139 2.02627 1.75045 2.12402 1.74632H22.0025C22.1014 1.7481 22.1955 1.78875 22.2645 1.85945C22.299 1.89372 22.3264 1.93449 22.345 1.97939C22.3636 2.02429 22.3732 2.07244 22.373 2.12104V10.7065ZM6.00155 13.0185C5.8829 13.0246 5.76424 13.0066 5.65279 12.9655C5.54133 12.9244 5.43943 12.8611 5.35326 12.7794C5.2671 12.6977 5.19849 12.5994 5.1516 12.4904C5.10471 12.3814 5.08053 12.264 5.08053 12.1453C5.08053 12.0267 5.10471 11.9093 5.1516 11.8003C5.19849 11.6913 5.2671 11.5929 5.35326 11.5112C5.43943 11.4295 5.54133 11.3662 5.65279 11.3251C5.76424 11.284 5.8829 11.266 6.00155 11.2722H14.1177C14.3417 11.2838 14.5528 11.3808 14.7072 11.5433C14.8617 11.7058 14.9478 11.9213 14.9478 12.1453C14.9478 12.3693 14.8617 12.5848 14.7072 12.7473C14.5528 12.9098 14.3417 13.0068 14.1177 13.0185H6.00155ZM6.00155 7.85021C5.8829 7.85637 5.76424 7.83835 5.65279 7.79725C5.54133 7.75615 5.43943 7.69282 5.35326 7.61114C5.2671 7.52945 5.19849 7.43111 5.1516 7.3221C5.10471 7.21309 5.08053 7.09569 5.08053 6.97705C5.08053 6.8584 5.10471 6.741 5.1516 6.63199C5.19849 6.52298 5.2671 6.42464 5.35326 6.34295C5.43943 6.26127 5.54133 6.19795 5.65279 6.15685C5.76424 6.11575 5.8829 6.09773 6.00155 6.10388H18.1226C18.2413 6.09773 18.36 6.11575 18.4714 6.15685C18.5829 6.19795 18.6848 6.26127 18.7709 6.34295C18.8571 6.42464 18.9257 6.52298 18.9726 6.63199C19.0195 6.741 19.0437 6.8584 19.0437 6.97705C19.0437 7.09569 19.0195 7.21309 18.9726 7.3221C18.9257 7.43111 18.8571 7.52945 18.7709 7.61114C18.6848 7.69282 18.5829 7.75615 18.4714 7.79725C18.36 7.83835 18.2413 7.85637 18.1226 7.85021H6.00155ZM22.7223 19.5395H20.7682C20.7682 19.2048 20.7682 18.4743 20.8792 18.1561C20.9554 17.9482 21.0698 17.7564 21.2166 17.5905C21.5297 17.2668 21.8648 16.9652 22.2196 16.6879C22.4981 16.4522 22.635 16.2542 22.635 16.0681C22.6395 15.987 22.627 15.9059 22.5981 15.8299C22.5692 15.754 22.5247 15.685 22.4674 15.6274C22.3243 15.5149 22.144 15.4602 21.9624 15.4742C21.8513 15.4701 21.7405 15.4889 21.6369 15.5294C21.5334 15.57 21.4393 15.6314 21.3606 15.7098C21.169 15.9484 21.0612 16.2432 21.0538 16.5488L19.0643 16.3132C19.1021 15.6469 19.3854 15.0182 19.8596 14.548C20.3316 14.1018 21.0396 13.8795 21.9836 13.881C22.6192 13.8538 23.2482 14.018 23.7891 14.3524C24.0794 14.5266 24.3192 14.7735 24.4847 15.0686C24.6503 15.3637 24.7359 15.6968 24.7331 16.0351C24.7327 16.3318 24.6511 16.6227 24.4971 16.8764C24.2278 17.2592 23.8949 17.5931 23.5129 17.8639C23.2572 18.0438 23.0352 18.2671 22.8569 18.5238C22.7586 18.858 22.7132 19.2054 22.7223 19.5536V19.5395ZM22.7931 20.2465V21.6817H20.7045V20.2442L22.7931 20.2465Z" fill="#222C2D"/>
</g>
<defs>
<clipPath id="clip0_675_2121">
<rect width="29" height="25" fill="white"/>
</clipPath>
</defs>
</svg>
