<svg width="16" height="12" viewBox="0 0 16 12" fill="none" xmlns="http://www.w3.org/2000/svg">
<path d="M8.30657 6.8799L15.1705 1.1971C14.8902 0.974498 14.5422 0.854609 14.1843 0.857219H1.81586C1.43904 0.856473 1.07404 0.988669 0.785156 1.23057L7.7048 6.89108C7.79272 6.95462 7.89893 6.98783 8.00749 6.98584C8.11593 6.98385 8.22089 6.94667 8.30645 6.88001L8.30657 6.8799Z" fill="black"/>
<path d="M1.81588 11.9998H14.1843C14.6129 11.9998 15.0237 11.8296 15.3268 11.5267C15.6298 11.2236 15.8 10.8127 15.8 10.3841V2.47279C15.8005 2.36423 15.7893 2.25591 15.7666 2.14972L9.00292 7.7491C8.71925 7.97009 8.3708 8.09147 8.01128 8.09446C7.65175 8.09745 7.30116 7.98192 7.01391 7.76579L0.222565 2.20556C0.206647 2.29373 0.199185 2.38327 0.200305 2.47293V10.3843C0.200305 10.8128 0.370556 11.2237 0.673489 11.5268C0.976556 11.8297 1.38745 12 1.816 12L1.81588 11.9998Z" fill="black"/>
</svg>
