<svg width="26" height="22" viewBox="0 0 26 22" fill="none" xmlns="http://www.w3.org/2000/svg">
<path d="M2.07688 0H3.92312C5.07003 0 6 1.14691 6 2.07688V3.92312C6 5.07003 5.07003 6 3.92312 6H2.07688C0.929969 6 0 4.85309 0 3.92312V2.07688C0 0.92997 0.929969 0 2.07688 0Z" fill="#FFCA2C"/>
<path d="M9.88369 0H24.1163C25.1565 0 26 1.14691 26 2.07688V3.92312C26 5.07003 25.1565 6 24.1163 6H9.88369C8.84346 6 8 4.85309 8 3.92312V2.07688C8 0.92997 8.84346 0 9.88369 0Z" fill="#FFCA2C"/>
<path d="M2.07688 8H3.92312C5.07003 8 6 9.14692 6 10.0769V11.9231C6 13.07 5.07003 14 3.92312 14H2.07688C0.929969 14 0 12.8531 0 11.9231V10.0769C0 8.92997 0.929969 8 2.07688 8Z" fill="#FFCA2C"/>
<path d="M9.88369 8H24.1163C25.1565 8 26 9.14692 26 10.0769V11.9231C26 13.07 25.1565 14 24.1163 14H9.88369C8.84346 14 8 12.8531 8 11.9231V10.0769C8 8.92997 8.84346 8 9.88369 8Z" fill="#FFCA2C"/>
<path d="M2.07688 16H3.92312C5.07003 16 6 17.1469 6 18.0769V19.9231C6 21.07 5.07003 22 3.92312 22H2.07688C0.929969 22 0 20.8531 0 19.9231V18.0769C0 16.93 0.929969 16 2.07688 16Z" fill="#FFCA2C"/>
<path d="M9.88369 16H24.1163C25.1565 16 26 17.1469 26 18.0769V19.9231C26 21.07 25.1565 22 24.1163 22H9.88369C8.84346 22 8 20.8531 8 19.9231V18.0769C8 16.93 8.84346 16 9.88369 16Z" fill="#FFCA2C"/>
</svg>
