<svg width="26" height="20" viewBox="0 0 26 20" fill="none" xmlns="http://www.w3.org/2000/svg">
<g clip-path="url(#clip0_720_1255)">
<path fill-rule="evenodd" clip-rule="evenodd" d="M23.6746 16.5339L22.2803 17.9686C21.9142 18.3453 21.3112 18.3453 20.9452 17.9686L19.8216 16.8125C19.2419 17.1304 18.6198 17.3743 17.9639 17.531V19.029C17.9639 19.5624 17.5386 20 17.0202 20H15.0482C14.5298 20 14.1045 19.5624 14.1045 19.029V17.3939C13.4613 17.1936 12.854 16.9083 12.2975 16.5469L11.2671 17.6072C10.901 17.9839 10.298 17.9839 9.93197 17.6072L9.30143 16.9606L9.31836 16.941L12.0838 13.6839C13.0952 14.9031 14.6017 15.6782 16.2817 15.6782C19.3286 15.6782 21.8 13.1352 21.8 10.0022C21.8 6.86697 19.3286 4.32397 16.2817 4.32397C14.7562 4.32397 13.3745 4.9619 12.3758 5.99173L11.3581 5.95254L8.78304 3.59242C8.81478 3.5467 8.84863 3.50533 8.88672 3.46397L10.2811 2.02917C10.6471 1.65251 11.2502 1.65251 11.6162 2.02917L12.7397 3.18528C13.3195 2.86523 13.9416 2.62138 14.5975 2.4668V0.968866C14.6017 0.437622 15.027 0 15.5454 0H17.5153C18.0337 0 18.459 0.437622 18.459 0.971043V2.60614C19.1022 2.80644 19.7095 3.09384 20.266 3.45308L21.2964 2.39277C21.6624 2.01611 22.2655 2.01611 22.6315 2.39277L24.0259 3.82756C24.3919 4.20422 24.3919 4.82473 24.0259 5.20139L22.9023 6.3575C23.2134 6.95406 23.4504 7.59416 23.6006 8.2691H25.0563C25.5726 8.2691 26 8.70673 26 9.24015V11.2693C26 11.8027 25.5747 12.2404 25.0563 12.2404H23.4694C23.2747 12.9022 22.9976 13.5271 22.6463 14.0997L23.6768 15.16C24.0428 15.5367 24.0428 16.155 23.6746 16.5339ZM16.2987 8.15589C17.2889 8.15589 18.0908 8.98106 18.0908 10C18.0908 11.0189 17.2889 11.8441 16.2987 11.8441C15.3084 11.8441 14.5065 11.0189 14.5065 10C14.5065 8.98106 15.3105 8.15589 16.2987 8.15589ZM12.7249 9.88678L7.85628 15.6238L7.69336 12.9327C4.36507 12.4428 1.81543 13.3834 0 16.0832C0.0211589 10.7707 3.37695 7.9926 7.36751 7.56586L7.20036 4.82038L12.7249 9.88678Z" fill="#FFCA2C"/>
</g>
<defs>
<clipPath id="clip0_720_1255">
<rect width="26" height="20" fill="white"/>
</clipPath>
</defs>
</svg>
