<svg width="30" height="30" viewBox="0 0 30 30" fill="none" xmlns="http://www.w3.org/2000/svg">
<g clip-path="url(#clip0_663_328)">
<path fill-rule="evenodd" clip-rule="evenodd" d="M15 0C17.9667 0 20.8668 0.879735 23.3336 2.52796C25.8003 4.17618 27.7229 6.51886 28.8582 9.25975C29.9935 12.0006 30.2906 15.0166 29.7118 17.9264C29.133 20.8361 27.7044 23.5088 25.6066 25.6066C23.5088 27.7044 20.8361 29.133 17.9264 29.7118C15.0166 30.2906 12.0006 29.9935 9.25975 28.8582C6.51886 27.7229 4.17618 25.8003 2.52796 23.3336C0.879735 20.8668 0 17.9667 0 15C0 11.0218 1.58035 7.20644 4.3934 4.3934C7.20644 1.58035 11.0218 0 15 0Z" fill="white"/>
<path fill-rule="evenodd" clip-rule="evenodd" d="M7.93457 13.0347H10.5127C10.6534 13.0353 10.7882 13.0917 10.8875 13.1914C10.9867 13.2912 11.0425 13.4262 11.0425 13.5669V20.6348C11.0418 20.7753 10.9859 20.9099 10.8868 21.0095C10.7876 21.1091 10.6532 21.1657 10.5127 21.167H7.93457C7.79361 21.1663 7.65861 21.1101 7.55894 21.0104C7.45927 20.9107 7.40299 20.7757 7.40234 20.6348V13.5669C7.40299 13.4259 7.45927 13.2909 7.55894 13.1913C7.65861 13.0916 7.79361 13.0353 7.93457 13.0347ZM14.6973 7.73437C14.9756 6.31347 17.2998 7.62207 17.4536 9.90967C17.4879 10.7228 17.4215 11.5371 17.2559 12.334H20.5786C21.958 12.3901 23.1641 13.3789 22.312 15.0024C22.5073 15.7104 22.5366 16.5405 22.0093 16.8701C22.0752 17.9858 21.7651 18.6792 21.1865 19.2261C21.1755 19.7353 21.0252 20.2318 20.752 20.6616C20.3052 21.2915 19.9438 21.1499 19.2407 21.1499H13.6255C12.7368 21.1499 12.2534 20.9058 11.6724 20.1733V13.916C13.3594 13.4692 14.248 11.1816 14.6973 9.68017V7.72705V7.73437Z" fill="#00A44B"/>
</g>
<defs>
<clipPath id="clip0_663_328">
<rect width="30" height="30" fill="white"/>
</clipPath>
</defs>
</svg>
