<svg width="30" height="30" viewBox="0 0 30 30" fill="none" xmlns="http://www.w3.org/2000/svg">
<g clip-path="url(#clip0_663_331)">
<path fill-rule="evenodd" clip-rule="evenodd" d="M15 30C12.0333 30 9.13318 29.1203 6.66645 27.472C4.19971 25.8238 2.27712 23.4811 1.14181 20.7403C0.00649157 17.9994 -0.290559 14.9834 0.28822 12.0736C0.866997 9.16393 2.29561 6.49119 4.3934 4.3934C6.49118 2.29561 9.16393 0.867 12.0736 0.288223C14.9834 -0.290557 17.9994 0.00649366 20.7402 1.14181C23.4811 2.27712 25.8238 4.19971 27.472 6.66645C29.1203 9.13318 30 12.0333 30 15C30 18.9782 28.4196 22.7936 25.6066 25.6066C22.7936 28.4196 18.9782 30 15 30Z" fill="white"/>
<path fill-rule="evenodd" clip-rule="evenodd" d="M22.0654 16.9653L19.4873 16.9653C19.3466 16.9647 19.2118 16.9083 19.1125 16.8086C19.0133 16.7088 18.9575 16.5738 18.9575 16.4331L18.9575 9.36524C18.9582 9.2247 19.0141 9.09006 19.1132 8.99046C19.2124 8.89085 19.3468 8.83429 19.4873 8.83301L22.0654 8.83301C22.2064 8.83365 22.3414 8.88993 22.4411 8.9896C22.5407 9.08928 22.597 9.22428 22.5977 9.36524L22.5977 16.4331C22.597 16.5741 22.5407 16.7091 22.4411 16.8087C22.3414 16.9084 22.2064 16.9647 22.0654 16.9653ZM15.3027 22.2656C15.0244 23.6865 12.7002 22.3779 12.5464 20.0903C12.5121 19.2772 12.5785 18.4629 12.7441 17.666L9.42139 17.666C8.04199 17.6099 6.83594 16.6211 7.68799 14.9976C7.49268 14.2896 7.46338 13.4595 7.99072 13.1299C7.9248 12.0142 8.23486 11.3208 8.81348 10.7739C8.82449 10.2647 8.97478 9.76822 9.24805 9.33838C9.69482 8.7085 10.0562 8.8501 10.7593 8.8501L16.3745 8.8501C17.2632 8.8501 17.7466 9.09424 18.3276 9.82666L18.3276 16.084C16.6406 16.5308 15.752 18.8184 15.3027 20.3198L15.3027 22.273L15.3027 22.2656Z" fill="#DC1238"/>
</g>
<defs>
<clipPath id="clip0_663_331">
<rect width="30" height="30" fill="white" transform="translate(30 30) rotate(180)"/>
</clipPath>
</defs>
</svg>
