<svg width="21" height="26" viewBox="0 0 21 26" fill="none" xmlns="http://www.w3.org/2000/svg">
<g clip-path="url(#clip0_720_1251)">
<path fill-rule="evenodd" clip-rule="evenodd" d="M19.6028 2.71205H16.2527V4.93372H17.6975C18.3428 4.93372 18.8772 5.48254 18.8772 6.14416V22.7391C18.8772 23.4018 18.3458 23.9496 17.6975 23.9496H3.30255C2.65422 23.9496 2.12278 23.4033 2.12278 22.7391V6.14416C2.12278 5.47949 2.65719 4.93372 3.30255 4.93372H4.74729V2.71205H1.39719C0.628513 2.71205 0 3.36097 0 4.14557V24.5665C0 25.3521 0.631485 26 1.39719 26H19.6028C20.3685 26 21 25.3551 21 24.5665V4.14557C21 3.3569 20.3715 2.71205 19.6028 2.71205ZM10.5 19.2821H15.49C15.5712 19.2821 15.6376 19.2145 15.6376 19.1307C15.6376 19.0875 15.6316 19.0453 15.6212 19.0026C15.385 17.0808 14.4167 17.0467 13.3746 16.7678C13.0631 16.6839 12.495 16.5066 12.1642 16.2093C11.9829 16.0451 11.8719 15.8449 11.916 15.6036C12.1681 15.3642 12.3613 15.1056 12.4054 14.6116L12.4351 14.6121C12.5054 14.6111 12.5728 14.5949 12.6357 14.5583C12.7743 14.4775 12.8506 14.322 12.8873 14.1446C12.9338 13.9205 12.9185 13.6548 12.8957 13.4861L12.8873 13.4535C12.8387 13.3148 12.7788 13.2396 12.7025 13.2071L12.7005 13.2061C12.7352 12.5388 12.6253 11.4819 13.2934 11.2745C11.975 9.6027 10.4544 8.6936 9.3133 10.1805C8.04142 10.2491 7.47432 12.1725 8.2638 13.2071H8.29748C8.2212 13.2396 8.16127 13.3148 8.11274 13.4535L8.10432 13.4861C8.08153 13.6548 8.06618 13.9205 8.11274 14.1446C8.14939 14.322 8.22566 14.4775 8.36434 14.5583C8.42724 14.5949 8.4946 14.6111 8.56493 14.6121L8.59465 14.6116C8.63873 15.1056 8.83189 15.3642 9.08399 15.6036C9.12807 15.8449 9.01712 16.0451 8.83585 16.2093C8.505 16.5066 7.93691 16.6839 7.62538 16.7678C6.5833 17.0467 5.61502 17.0808 5.37877 19.0026C5.36837 19.0453 5.36243 19.0875 5.36243 19.1307C5.36243 19.2145 5.4288 19.2821 5.51002 19.2821H10.5ZM14.3171 2.00215H12.7337C12.6 0.873019 11.712 0 10.6347 0C9.56491 0 8.68132 0.861331 8.53818 1.97827L6.68484 2.00215C6.55507 2.00215 6.45156 2.10836 6.45156 2.24098V5.48508C6.45156 5.6172 6.55507 5.72391 6.68484 5.72391H14.3152C14.442 5.72391 14.5479 5.6172 14.5479 5.48508V2.24098C14.5504 2.10836 14.4464 2.00215 14.3171 2.00215ZM11.502 2.98442C11.3588 3.18565 11.1538 3.38384 10.9368 3.48598C10.7595 3.54035 10.5659 3.54543 10.3856 3.49512C10.1043 3.36249 9.84573 3.04337 9.72637 2.77608C9.71201 2.70036 9.70259 2.6221 9.70259 2.53673C9.70259 1.97115 10.1251 1.51228 10.6466 1.51228C11.1676 1.51228 11.5896 1.97115 11.5896 2.53673C11.5871 2.70748 11.5574 2.85891 11.502 2.98442Z" fill="#FFCA2C"/>
</g>
<defs>
<clipPath id="clip0_720_1251">
<rect width="21" height="26" fill="white" transform="matrix(-1 0 0 1 21 0)"/>
</clipPath>
</defs>
</svg>
