<svg width="29" height="24" viewBox="0 0 29 24" fill="none" xmlns="http://www.w3.org/2000/svg">
<path d="M27.7999 20.4302H24.2738V5.79319C24.2738 4.60053 23.3249 3.62969 22.1582 3.62969H17.2218V6.42978H21.453V23.2303H27.7999C28.1895 23.2303 28.5051 22.917 28.5051 22.5303V21.1302C28.5051 20.7435 28.1895 20.4302 27.7999 20.4302ZM14.059 0.873797L5.59649 3.04999C4.96842 3.21143 4.52811 3.79157 4.52811 4.45747V20.4302H1.00208C0.612454 20.4302 0.296875 20.7435 0.296875 21.1302V22.5303C0.296875 22.917 0.612454 23.2303 1.00208 23.2303H15.8114V2.28128C15.8114 1.33712 14.9493 0.64454 14.059 0.873797ZM11.9328 13.43C11.3488 13.43 10.875 12.803 10.875 12.0299C10.875 11.2569 11.3488 10.6299 11.9328 10.6299C12.5168 10.6299 12.9906 11.2569 12.9906 12.0299C12.9906 12.803 12.5168 13.43 11.9328 13.43Z" fill="#222C2D"/>
</svg>
