<svg width="13" height="12" viewBox="0 0 13 12" fill="none" xmlns="http://www.w3.org/2000/svg">
<path d="M6.20693 0C2.95873 0 0.326172 2.63256 0.326172 5.88076C0.326172 9.12896 2.95873 11.7615 6.20693 11.7615C9.45513 11.7615 12.0877 9.12896 12.0877 5.88076C12.0877 2.63256 9.45513 0 6.20693 0ZM8.86706 4.86541L5.92668 7.80579C5.80033 7.93214 5.63723 7.99416 5.47184 7.99416C5.30644 7.99416 5.14242 7.9317 5.01677 7.80607L3.54658 6.33588C3.29596 6.08457 3.29596 5.67682 3.54658 5.42551C3.79789 5.1742 4.20564 5.1742 4.45695 5.42551L5.47184 6.44127L7.95738 3.95573C8.20869 3.70442 8.61644 3.70442 8.86775 3.95573C9.11745 4.20612 9.11745 4.61502 8.86706 4.86541Z" fill="#00B06A"/>
</svg>
