<svg width="27" height="27" viewBox="0 0 27 27" fill="none" xmlns="http://www.w3.org/2000/svg">
<path d="M23.8846 0H3.11538C2.289 0 1.49675 0.328225 0.912361 0.912363C0.328225 1.49673 0 2.28901 0 3.11538V23.8846C0 24.711 0.328225 25.5033 0.912361 26.0876C1.49673 26.6718 2.289 27 3.11538 27H8.6598C11.637 25.8961 11.9423 23.1234 11.9423 19.7308V14.1449L10.4479 15.6402C10.0543 16.0338 9.48054 16.1877 8.9428 16.0435C8.40503 15.8996 7.98498 15.4795 7.84108 14.9418C7.6969 14.404 7.85082 13.8303 8.24442 13.4367L12.3983 9.28289C12.6903 8.99059 13.0867 8.82625 13.5 8.82625C13.9132 8.82625 14.3097 8.99059 14.6017 9.28289L18.7555 13.4367C19.1491 13.8303 19.303 14.404 19.1589 14.9418C19.0149 15.4796 18.5949 15.8996 18.0571 16.0435C17.5194 16.1877 16.9457 16.0338 16.5521 15.6402L15.0577 14.1449V19.7308C15.0577 21.5054 15.0451 24.5689 13.4585 27H23.8846C24.711 27 25.5033 26.6718 26.0876 26.0876C26.6718 25.5033 27 24.711 27 23.8846V3.11538C27 2.28901 26.6718 1.49675 26.0876 0.912363C25.5033 0.328225 24.7109 0 23.8846 0Z" fill="#FFCA2C"/>
</svg>
