<svg width="26" height="30" viewBox="0 0 26 30" fill="none" xmlns="http://www.w3.org/2000/svg">
<g clip-path="url(#clip0_658_1498)">
<path fill-rule="evenodd" clip-rule="evenodd" d="M14.9869 17.0288H23.8566C24.427 17.0288 24.974 17.2603 25.3773 17.6724C25.7806 18.0844 26.0072 18.6433 26.0072 19.2261V27.8076C26.0072 28.3904 25.7806 28.9493 25.3773 29.3613C24.974 29.7734 24.427 30.0049 23.8566 30.0049H14.9869C14.4165 30.0049 13.8695 29.7734 13.4662 29.3613C13.0629 28.9493 12.8363 28.3904 12.8363 27.8076V19.2188C12.8363 18.636 13.0629 18.0771 13.4662 17.6651C13.8695 17.253 14.4165 17.0215 14.9869 17.0215V17.0288ZM20.1816 6.88233C20.338 6.92767 20.4758 7.02351 20.5745 7.15554C20.6731 7.28756 20.7272 7.44866 20.7288 7.61475V8.90625H22.6046C22.8209 8.90447 23.0354 8.94673 23.2356 9.03057C23.4359 9.1144 23.6177 9.23813 23.7706 9.39453C24.0778 9.7115 24.2496 10.1399 24.2485 10.5859V14.6997H22.8148V10.6006C22.8152 10.5369 22.7912 10.4756 22.7479 10.4297C22.7024 10.3849 22.6414 10.3603 22.5783 10.3613H20.7288V14.6973H19.221V8.54492H12.9534C12.8531 8.54622 12.7536 8.52715 12.6606 8.48884C12.5676 8.45053 12.483 8.39372 12.4116 8.32173C12.3403 8.24973 12.2836 8.16398 12.2449 8.06944C12.2063 7.9749 12.1864 7.87346 12.1864 7.771V1.53565H1.51016V24.8462H10.4564V26.3867H3.9116V28.3203C3.91122 28.384 3.93523 28.4453 3.9785 28.4912C4.02339 28.5354 4.08342 28.56 4.14577 28.5596H10.4516V30.0073H4.15533C3.71873 30.0023 3.30139 29.823 2.99242 29.5078C2.68346 29.1925 2.50739 28.7664 2.5018 28.3203V26.3965H1.35246C0.994217 26.3968 0.650471 26.252 0.396664 25.9937C0.270405 25.8659 0.170304 25.7138 0.102202 25.5461C0.0340995 25.3785 -0.000640375 25.1986 8.93662e-06 25.0171V1.3794C8.65861e-06 1.19805 0.035008 1.01848 0.103004 0.850961C0.171 0.683446 0.270659 0.531274 0.396277 0.403153C0.521895 0.275033 0.671006 0.173478 0.835079 0.104301C0.999152 0.0351234 1.17496 -0.000318813 1.35246 2.16073e-06H12.9534C13.0644 -0.000249791 13.1741 0.025083 13.2742 0.0741154C13.3743 0.123148 13.4623 0.194617 13.5317 0.283205L20.1816 6.875V6.88233ZM4.77898 12.6025C4.71382 12.6041 4.64961 12.6189 4.59013 12.6462C4.53064 12.6734 4.47708 12.7125 4.43257 12.7612C4.38806 12.8098 4.35351 12.8671 4.33093 12.9295C4.30835 12.992 4.2982 13.0585 4.30108 13.125C4.29683 13.1917 4.30604 13.2587 4.32814 13.3216C4.35025 13.3846 4.38477 13.4422 4.42958 13.491C4.47439 13.5397 4.52852 13.5786 4.58863 13.6051C4.64873 13.6316 4.71352 13.6452 4.77898 13.645H13.6201C13.685 13.6435 13.749 13.6287 13.8084 13.6016C13.8677 13.5745 13.9211 13.5357 13.9656 13.4873C14.0101 13.4389 14.0447 13.3819 14.0674 13.3197C14.0901 13.2575 14.1005 13.1913 14.098 13.125C14.1026 13.0581 14.0936 12.9909 14.0717 12.9276C14.0497 12.8644 14.0153 12.8064 13.9704 12.7574C13.9256 12.7084 13.8713 12.6693 13.811 12.6427C13.7508 12.616 13.6858 12.6024 13.6201 12.6025H4.77898ZM4.77898 16.3306C4.71517 16.3324 4.65236 16.3473 4.59427 16.3744C4.53619 16.4015 4.484 16.4402 4.44079 16.4882C4.39757 16.5362 4.36422 16.5926 4.34269 16.654C4.32116 16.7154 4.31188 16.7806 4.31542 16.8457C4.31054 16.9116 4.31882 16.9779 4.33975 17.0404C4.36067 17.103 4.39381 17.1605 4.43715 17.2096C4.4805 17.2587 4.53314 17.2983 4.5919 17.3259C4.65066 17.3536 4.71431 17.3688 4.77898 17.3706H10.4421V16.3306H4.77898ZM4.77898 20.0562C4.71515 20.0586 4.65244 20.0741 4.59458 20.1018C4.53672 20.1295 4.48487 20.1687 4.4421 20.2172C4.39932 20.2656 4.3665 20.3224 4.34556 20.3841C4.32463 20.4457 4.316 20.511 4.3202 20.5762C4.316 20.6413 4.32463 20.7066 4.34556 20.7683C4.3665 20.83 4.39932 20.8867 4.4421 20.9352C4.48487 20.9837 4.53672 21.0229 4.59458 21.0505C4.65244 21.0782 4.71515 21.0937 4.77898 21.0962H10.4421V20.0562H4.77898ZM4.77898 8.87696C4.71352 8.87681 4.64873 8.89041 4.58863 8.91691C4.52852 8.94341 4.47439 8.98224 4.42958 9.031C4.38477 9.07976 4.35025 9.1374 4.32814 9.20036C4.30604 9.26331 4.29683 9.33023 4.30108 9.39698C4.29683 9.46372 4.30604 9.53064 4.32814 9.59359C4.35025 9.65655 4.38477 9.71419 4.42958 9.76295C4.47439 9.81171 4.52852 9.85054 4.58863 9.87704C4.64873 9.90354 4.71352 9.91714 4.77898 9.91699H10.0096C10.0732 9.91421 10.1356 9.89845 10.1932 9.87066C10.2508 9.84287 10.3024 9.80359 10.3449 9.75514C10.3874 9.7067 10.42 9.65005 10.4408 9.58855C10.4616 9.52704 10.4702 9.46191 10.466 9.39698C10.4702 9.33204 10.4616 9.26691 10.4408 9.2054C10.42 9.1439 10.3874 9.08725 10.3449 9.03881C10.3024 8.99036 10.2508 8.95108 10.1932 8.92329C10.1356 8.8955 10.0732 8.87974 10.0096 8.87696H4.77898ZM4.77898 5.15137C4.71515 5.15384 4.65244 5.16936 4.59458 5.19701C4.53672 5.22467 4.48487 5.2639 4.4421 5.31238C4.39932 5.36086 4.3665 5.41761 4.34556 5.47927C4.32463 5.54093 4.316 5.60626 4.3202 5.67139C4.316 5.73652 4.32463 5.80184 4.34556 5.86351C4.3665 5.92517 4.39932 5.98192 4.4421 6.0304C4.48487 6.07888 4.53672 6.11811 4.59458 6.14576C4.65244 6.17342 4.71515 6.18894 4.77898 6.19141H7.64637C7.71 6.18862 7.77244 6.17287 7.83003 6.14507C7.88761 6.11728 7.93918 6.078 7.9817 6.02956C8.02422 5.98111 8.05683 5.92447 8.07762 5.86296C8.09841 5.80145 8.10696 5.73632 8.10276 5.67139C8.10696 5.60646 8.09841 5.54133 8.07762 5.47982C8.05683 5.41831 8.02422 5.36167 7.9817 5.31322C7.93918 5.26477 7.88761 5.2255 7.83003 5.1977C7.77244 5.16991 7.71 5.15416 7.64637 5.15137H4.77898ZM13.7085 2.70996L18.2175 7.0044H13.7037V2.7002L13.7085 2.70996ZM21.7611 23.9575C22.2055 23.6646 22.2055 23.3374 21.7611 23.0786L17.7993 20.3784C17.4385 20.1343 17.0586 20.2808 17.0681 20.7666L17.0824 26.2231C17.1135 26.7481 17.4074 26.8897 17.8399 26.648L21.7611 23.9624V23.9575Z" fill="#FFCA2C"/>
</g>
<defs>
<clipPath id="clip0_658_1498">
<rect width="26" height="30" fill="white"/>
</clipPath>
</defs>
</svg>
